<svg version="1.1" xmlns="http://www.w3.org/2000/svg" xmlns:xlink="http://www.w3.org/1999/xlink" width="1084" height="760"><defs/><g><g transform="translate(-70,-102) scale(1,1)"><path fill="#C0C0C0" stroke="none" d="M 423 145 C 423 130.6405952 458.81721600000003 119 503 119 C 547.182784 119 583 130.6405952 583 145 C 583 159.3594048 547.182784 171 503 171 C 458.81721600000003 171 423 159.3594048 423 145 Z" opacity="0.2"/></g><g transform="translate(-70,-102) scale(1,1)"><path fill="#ffffff" stroke="none" d="M 416 138 C 416 123.6405952 451.81721600000003 112 496 112 C 540.182784 112 576 123.6405952 576 138 C 576 152.3594048 540.182784 164 496 164 C 451.81721600000003 164 416 152.3594048 416 138 Z"/></g><g transform="translate(-70,-102) scale(1,1)"><path fill="none" stroke="#000000" d="M 416 138 C 416 123.6405952 451.81721600000003 112 496 112 C 540.182784 112 576 123.6405952 576 138 C 576 152.3594048 540.182784 164 496 164 C 451.81721600000003 164 416 152.3594048 416 138 Z" stroke-miterlimit="10"/></g><g transform="translate(-70,-102) scale(1,1)"><g><path fill="none" stroke="none"/><text fill="#000000" stroke="none" font-family="Arial" font-size="13px" font-style="normal" font-weight="bold" text-decoration="none" x="457.701416015625" y="138.5">view revenue</text><text fill="#000000" stroke="none" font-family="Arial" font-size="13px" font-style="normal" font-weight="bold" text-decoration="none" x="473.234130859375" y="151.5">account</text></g></g><g transform="translate(-70,-102) scale(1,1)"><path fill="#C0C0C0" stroke="none" d="M 767 209 C 767 194.6405952 807.5182256 183 857.5 183 C 907.4817744 183 948 194.6405952 948 209 C 948 223.3594048 907.4817744 235 857.5 235 C 807.5182256 235 767 223.3594048 767 209 Z" opacity="0.2"/></g><g transform="translate(-70,-102) scale(1,1)"><path fill="#ffffff" stroke="none" d="M 760 202 C 760 187.6405952 800.5182256 176 850.5 176 C 900.4817744 176 941 187.6405952 941 202 C 941 216.3594048 900.4817744 228 850.5 228 C 800.5182256 228 760 216.3594048 760 202 Z"/></g><g transform="translate(-70,-102) scale(1,1)"><path fill="none" stroke="#000000" d="M 760 202 C 760 187.6405952 800.5182256 176 850.5 176 C 900.4817744 176 941 187.6405952 941 202 C 941 216.3594048 900.4817744 228 850.5 228 C 800.5182256 228 760 216.3594048 760 202 Z" stroke-miterlimit="10"/></g><g transform="translate(-70,-102) scale(1,1)"><g><path fill="none" stroke="none"/><text fill="#000000" stroke="none" font-family="Arial" font-size="13px" font-style="normal" font-weight="bold" text-decoration="none" x="812.925048828125" y="202.5">view account</text><text fill="#000000" stroke="none" font-family="Arial" font-size="13px" font-style="normal" font-weight="bold" text-decoration="none" x="834.59912109375" y="215.5">sheet</text></g></g><g transform="translate(-70,-102) scale(1,1)"><path fill="#C0C0C0" stroke="none" d="M 815 289 C 815 274.6405952 840.2959088 263 871.5 263 C 902.7040912 263 928 274.6405952 928 289 C 928 303.3594048 902.7040912 315 871.5 315 C 840.2959088 315 815 303.3594048 815 289 Z" opacity="0.2"/></g><g transform="translate(-70,-102) scale(1,1)"><path fill="#ffffff" stroke="none" d="M 808 282 C 808 267.6405952 833.2959088 256 864.5 256 C 895.7040912 256 921 267.6405952 921 282 C 921 296.3594048 895.7040912 308 864.5 308 C 833.2959088 308 808 296.3594048 808 282 Z"/></g><g transform="translate(-70,-102) scale(1,1)"><path fill="none" stroke="#000000" d="M 808 282 C 808 267.6405952 833.2959088 256 864.5 256 C 895.7040912 256 921 267.6405952 921 282 C 921 296.3594048 895.7040912 308 864.5 308 C 833.2959088 308 808 296.3594048 808 282 Z" stroke-miterlimit="10"/></g><g transform="translate(-70,-102) scale(1,1)"><g><path fill="none" stroke="none"/><text fill="#000000" stroke="none" font-family="Arial" font-size="13px" font-style="normal" font-weight="bold" text-decoration="none" x="851.496826171875" y="282.5">view</text><text fill="#000000" stroke="none" font-family="Arial" font-size="13px" font-style="normal" font-weight="bold" text-decoration="none" x="846.431396484375" y="295.5">ledger</text></g></g><g transform="translate(-70,-102) scale(1,1)"><path fill="#C0C0C0" stroke="none" d="M 903 377 C 903 362.6405952 951.129384 351 1010.5 351 C 1069.870616 351 1118 362.6405952 1118 377 C 1118 391.3594048 1069.870616 403 1010.5 403 C 951.129384 403 903 391.3594048 903 377 Z" opacity="0.2"/></g><g transform="translate(-70,-102) scale(1,1)"><path fill="#ffffff" stroke="none" d="M 896 370 C 896 355.6405952 944.129384 344 1003.5 344 C 1062.870616 344 1111 355.6405952 1111 370 C 1111 384.3594048 1062.870616 396 1003.5 396 C 944.129384 396 896 384.3594048 896 370 Z"/></g><g transform="translate(-70,-102) scale(1,1)"><path fill="none" stroke="#000000" d="M 896 370 C 896 355.6405952 944.129384 344 1003.5 344 C 1062.870616 344 1111 355.6405952 1111 370 C 1111 384.3594048 1062.870616 396 1003.5 396 C 944.129384 396 896 384.3594048 896 370 Z" stroke-miterlimit="10"/></g><g transform="translate(-70,-102) scale(1,1)"><g><path fill="none" stroke="none"/><text fill="#000000" stroke="none" font-family="Arial" font-size="13px" font-style="normal" font-weight="bold" text-decoration="none" x="961.96728515625" y="370.5">view summary</text><text fill="#000000" stroke="none" font-family="Arial" font-size="13px" font-style="normal" font-weight="bold" text-decoration="none" x="980.734130859375" y="383.5">account</text></g></g><g transform="translate(-70,-102) scale(1,1)"><path fill="#C0C0C0" stroke="none" d="M 935 441 C 935 426.6405952 962.0867696 415 995.5 415 C 1028.9132304 415 1056 426.6405952 1056 441 C 1056 455.3594048 1028.9132304 467 995.5 467 C 962.0867696 467 935 455.3594048 935 441 Z" opacity="0.2"/></g><g transform="translate(-70,-102) scale(1,1)"><path fill="#ffffff" stroke="none" d="M 928 434 C 928 419.6405952 955.0867696 408 988.5 408 C 1021.9132304 408 1049 419.6405952 1049 434 C 1049 448.3594048 1021.9132304 460 988.5 460 C 955.0867696 460 928 448.3594048 928 434 Z"/></g><g transform="translate(-70,-102) scale(1,1)"><path fill="none" stroke="#000000" d="M 928 434 C 928 419.6405952 955.0867696 408 988.5 408 C 1021.9132304 408 1049 419.6405952 1049 434 C 1049 448.3594048 1021.9132304 460 988.5 460 C 955.0867696 460 928 448.3594048 928 434 Z" stroke-miterlimit="10"/></g><g transform="translate(-70,-102) scale(1,1)"><g><path fill="none" stroke="none"/><text fill="#000000" stroke="none" font-family="Arial" font-size="13px" font-style="normal" font-weight="bold" text-decoration="none" x="975.496826171875" y="434.5">view</text><text fill="#000000" stroke="none" font-family="Arial" font-size="13px" font-style="normal" font-weight="bold" text-decoration="none" x="968.266845703125" y="447.5">invoice</text></g></g><g transform="translate(-70,-102) scale(1,1)"><path fill="#C0C0C0" stroke="none" d="M 983 513 C 983 498.6405952 1020.6080768 487 1067 487 C 1113.3919232 487 1151 498.6405952 1151 513 C 1151 527.3594048 1113.3919232 539 1067 539 C 1020.6080768 539 983 527.3594048 983 513 Z" opacity="0.2"/></g><g transform="translate(-70,-102) scale(1,1)"><path fill="#ffffff" stroke="none" d="M 976 506 C 976 491.6405952 1013.6080768 480 1060 480 C 1106.3919232 480 1144 491.6405952 1144 506 C 1144 520.3594048 1106.3919232 532 1060 532 C 1013.6080768 532 976 520.3594048 976 506 Z"/></g><g transform="translate(-70,-102) scale(1,1)"><path fill="none" stroke="#000000" d="M 976 506 C 976 491.6405952 1013.6080768 480 1060 480 C 1106.3919232 480 1144 491.6405952 1144 506 C 1144 520.3594048 1106.3919232 532 1060 532 C 1013.6080768 532 976 520.3594048 976 506 Z" stroke-miterlimit="10"/></g><g transform="translate(-70,-102) scale(1,1)"><g><path fill="none" stroke="none"/><text fill="#000000" stroke="none" font-family="Arial" font-size="13px" font-style="normal" font-weight="bold" text-decoration="none" x="1017.37548828125" y="506.5">view profit/loss</text><text fill="#000000" stroke="none" font-family="Arial" font-size="13px" font-style="normal" font-weight="bold" text-decoration="none" x="1031.457763671875" y="519.5">statement</text></g></g><g transform="translate(-70,-102) scale(1,1)"><path fill="#C0C0C0" stroke="none" d="M 943 681 C 943 666.6405952 983.0705104 655 1032.5 655 C 1081.9294896 655 1122 666.6405952 1122 681 C 1122 695.3594048 1081.9294896 707 1032.5 707 C 983.0705104 707 943 695.3594048 943 681 Z" opacity="0.2"/></g><g transform="translate(-70,-102) scale(1,1)"><path fill="#ffffff" stroke="none" d="M 936 674 C 936 659.6405952 976.0705104 648 1025.5 648 C 1074.9294896 648 1115 659.6405952 1115 674 C 1115 688.3594048 1074.9294896 700 1025.5 700 C 976.0705104 700 936 688.3594048 936 674 Z"/></g><g transform="translate(-70,-102) scale(1,1)"><path fill="none" stroke="#000000" d="M 936 674 C 936 659.6405952 976.0705104 648 1025.5 648 C 1074.9294896 648 1115 659.6405952 1115 674 C 1115 688.3594048 1074.9294896 700 1025.5 700 C 976.0705104 700 936 688.3594048 936 674 Z" stroke-miterlimit="10"/></g><g transform="translate(-70,-102) scale(1,1)"><g><path fill="none" stroke="none"/><text fill="#000000" stroke="none" font-family="Arial" font-size="13px" font-style="normal" font-weight="bold" text-decoration="none" x="987.921875" y="674.5">view balance</text><text fill="#000000" stroke="none" font-family="Arial" font-size="13px" font-style="normal" font-weight="bold" text-decoration="none" x="1009.59912109375" y="687.5">sheet</text></g></g><g transform="translate(-70,-102) scale(1,1)"><path fill="#C0C0C0" stroke="none" d="M 735 801 C 735 786.6405952 785.1441024 775 847 775 C 908.8558976 775 959 786.6405952 959 801 C 959 815.3594048 908.8558976 827 847 827 C 785.1441024 827 735 815.3594048 735 801 Z" opacity="0.2"/></g><g transform="translate(-70,-102) scale(1,1)"><path fill="#ffffff" stroke="none" d="M 728 794 C 728 779.6405952 778.1441024 768 840 768 C 901.8558976 768 952 779.6405952 952 794 C 952 808.3594048 901.8558976 820 840 820 C 778.1441024 820 728 808.3594048 728 794 Z"/></g><g transform="translate(-70,-102) scale(1,1)"><path fill="none" stroke="#000000" d="M 728 794 C 728 779.6405952 778.1441024 768 840 768 C 901.8558976 768 952 779.6405952 952 794 C 952 808.3594048 901.8558976 820 840 820 C 778.1441024 820 728 808.3594048 728 794 Z" stroke-miterlimit="10"/></g><g transform="translate(-70,-102) scale(1,1)"><g><path fill="none" stroke="none"/><text fill="#000000" stroke="none" font-family="Arial" font-size="13px" font-style="normal" font-weight="bold" text-decoration="none" x="773.885986328125" y="794.5">view statement of cash</text><text fill="#000000" stroke="none" font-family="Arial" font-size="13px" font-style="normal" font-weight="bold" text-decoration="none" x="828.44091796875" y="807.5">flow</text></g></g><g transform="translate(-70,-102) scale(1,1)"><path fill="#C0C0C0" stroke="none" d="M 423 833 C 423 818.6405952 470.9055264 807 530 807 C 589.0944736 807 637 818.6405952 637 833 C 637 847.3594048 589.0944736 859 530 859 C 470.9055264 859 423 847.3594048 423 833 Z" opacity="0.2"/></g><g transform="translate(-70,-102) scale(1,1)"><path fill="#ffffff" stroke="none" d="M 416 826 C 416 811.6405952 463.9055264 800 523 800 C 582.0944736 800 630 811.6405952 630 826 C 630 840.3594048 582.0944736 852 523 852 C 463.9055264 852 416 840.3594048 416 826 Z"/></g><g transform="translate(-70,-102) scale(1,1)"><path fill="none" stroke="#000000" d="M 416 826 C 416 811.6405952 463.9055264 800 523 800 C 582.0944736 800 630 811.6405952 630 826 C 630 840.3594048 582.0944736 852 523 852 C 463.9055264 852 416 840.3594048 416 826 Z" stroke-miterlimit="10"/></g><g transform="translate(-70,-102) scale(1,1)"><g><path fill="none" stroke="none"/><text fill="#000000" stroke="none" font-family="Arial" font-size="13px" font-style="normal" font-weight="bold" text-decoration="none" x="487.2373046875" y="826.5">view income</text><text fill="#000000" stroke="none" font-family="Arial" font-size="13px" font-style="normal" font-weight="bold" text-decoration="none" x="494.457763671875" y="839.5">statement</text></g></g><g transform="translate(-70,-102) scale(1,1)"><path fill="#ffffff" stroke="none" d="M 386.35661594460225 460.68 C 386.35661594460225 455.886167936 390.24245826954774 452 395.035888671875 452 C 399.82931907420226 452 403.71516139914775 455.886167936 403.71516139914775 460.68 C 403.71516139914775 465.473832064 399.82931907420226 469.36 395.035888671875 469.36 C 390.24245826954774 469.36 386.35661594460225 465.473832064 386.35661594460225 460.68 Z"/></g><g transform="translate(-70,-102) scale(1,1)"><path fill="none" stroke="#000000" d="M 386.35661594460225 460.68 C 386.35661594460225 455.886167936 390.24245826954774 452 395.035888671875 452 C 399.82931907420226 452 403.71516139914775 455.886167936 403.71516139914775 460.68 C 403.71516139914775 465.473832064 399.82931907420226 469.36 395.035888671875 469.36 C 390.24245826954774 469.36 386.35661594460225 465.473832064 386.35661594460225 460.68 Z" stroke-miterlimit="10"/></g><g transform="translate(-70,-102) scale(1,1)"><path fill="none" stroke="#000000" d="M 395.035888671875 469.36 L 395.035888671875 486.64" stroke-miterlimit="10"/></g><g transform="translate(-70,-102) scale(1,1)"><path fill="none" stroke="#000000" d="M 385.84607049005683 475.84 L 404.22570685369317 475.84" stroke-miterlimit="10"/></g><g transform="translate(-70,-102) scale(1,1)"><path fill="none" stroke="#000000" d="M 395.035888671875 486.64 L 382.27225230823865 504" stroke-miterlimit="10"/></g><g transform="translate(-70,-102) scale(1,1)"><path fill="none" stroke="#000000" d="M 395.035888671875 486.64 L 407.79952503551135 504" stroke-miterlimit="10"/></g><g transform="translate(-70,-102) scale(1,1)"><g><path fill="none" stroke="none"/><text fill="#000000" stroke="none" font-family="Arial" font-size="13px" font-style="normal" font-weight="bold" text-decoration="none" x="344.089599609375" y="524.5">Account Manager</text></g></g><g transform="translate(-70,-102) scale(1,1)"><g><path fill="none" stroke="none"/><text fill="#000000" stroke="none" font-family="Arial" font-size="13px" font-style="normal" font-weight="normal" text-decoration="none" x="358.197265625" y="539.5">(from Model)</text></g></g><g transform="translate(-70,-102) scale(1,1)"><path fill="none" stroke="#000000" d="M 408 450 L 488 165" stroke-miterlimit="10"/></g><g transform="translate(-70,-102) scale(1,1)"><path fill="none" stroke="#000000" d="M 489.3063470012146 175.92215443547735 L 488 165 L 481.2005973566488 173.64685628963431" stroke-miterlimit="10"/></g><g transform="translate(-70,-102) scale(1,1)"><path fill="none" stroke="#000000" d="M 455 459 L 808 229" stroke-miterlimit="10"/></g><g transform="translate(-70,-102) scale(1,1)"><path fill="none" stroke="#000000" d="M 801.7832371587409 238.07479254724538 L 808 229 L 797.1872374898988 231.02093218593552" stroke-miterlimit="10"/></g><g transform="translate(-70,-102) scale(1,1)"><path fill="none" stroke="#000000" d="M 455 470 L 807 308" stroke-miterlimit="10"/></g><g transform="translate(-70,-102) scale(1,1)"><path fill="none" stroke="#000000" d="M 799.5280020254831 316.0727471327186 L 807 308 L 796.0082053228574 308.42479380355655" stroke-miterlimit="10"/></g><g transform="translate(-70,-102) scale(1,1)"><path fill="none" stroke="#000000" d="M 455 485 L 895 393" stroke-miterlimit="10"/></g><g transform="translate(-70,-102) scale(1,1)"><path fill="none" stroke="#000000" d="M 885.9139881252822 399.2003538780047 L 895 393 L 884.1909071165521 390.95953166233903" stroke-miterlimit="10"/></g><g transform="translate(-70,-102) scale(1,1)"><path fill="none" stroke="#000000" d="M 455 492 L 927 441" stroke-miterlimit="10"/></g><g transform="translate(-70,-102) scale(1,1)"><path fill="none" stroke="#000000" d="M 917.3483450761572 446.27688897278125 L 927 441 L 916.443925377456 437.90657332990037" stroke-miterlimit="10"/></g><g transform="translate(-70,-102) scale(1,1)"><path fill="none" stroke="#000000" d="M 455 499 L 975 505" stroke-miterlimit="10"/></g><g transform="translate(-70,-102) scale(1,1)"><path fill="none" stroke="#000000" d="M 964.7894334585079 509.0919837367421 L 975 505 L 964.8865697099991 500.67350860750986" stroke-miterlimit="10"/></g><g transform="translate(-70,-102) scale(1,1)"><path fill="none" stroke="#000000" d="M 455 515 L 935 649" stroke-miterlimit="10"/></g><g transform="translate(-70,-102) scale(1,1)"><path fill="none" stroke="#000000" d="M 924.0797162609568 650.3218937395987 L 935 649 L 926.343473288363 642.2129133429197" stroke-miterlimit="10"/></g><g transform="translate(-70,-102) scale(1,1)"><path fill="none" stroke="#000000" d="M 455 538 L 799 767" stroke-miterlimit="10"/></g><g transform="translate(-70,-102) scale(1,1)"><path fill="none" stroke="#000000" d="M 788.207692809339 764.8725354286363 L 799 767 L 792.8730310259807 757.8643417756899" stroke-miterlimit="10"/></g><g transform="translate(-70,-102) scale(1,1)"><path fill="none" stroke="#000000" d="M 414 546 L 512 799" stroke-miterlimit="10"/></g><g transform="translate(-70,-102) scale(1,1)"><path fill="none" stroke="#000000" d="M 504.4039078594814 791.0439089879042 L 512 799 L 512.2545576433117 788.0029458305312" stroke-miterlimit="10"/></g><g transform="translate(-70,-102) scale(1,1)"><path fill="#C0C0C0" stroke="none" d="M 639 160 C 639 150.6111584 685.3385232 143 742.5 143 C 799.6614768 143 846 150.6111584 846 160 C 846 169.3888416 799.6614768 177 742.5 177 C 685.3385232 177 639 169.3888416 639 160 Z" opacity="0.2"/></g><g transform="translate(-70,-102) scale(1,1)"><path fill="#ffffff" stroke="none" d="M 632 153 C 632 143.6111584 678.3385232 136 735.5 136 C 792.6614768 136 839 143.6111584 839 153 C 839 162.3888416 792.6614768 170 735.5 170 C 678.3385232 170 632 162.3888416 632 153 Z"/></g><g transform="translate(-70,-102) scale(1,1)"><path fill="none" stroke="#000000" d="M 632 153 C 632 143.6111584 678.3385232 136 735.5 136 C 792.6614768 136 839 143.6111584 839 153 C 839 162.3888416 792.6614768 170 735.5 170 C 678.3385232 170 632 162.3888416 632 153 Z" stroke-miterlimit="10"/></g><g transform="translate(-70,-102) scale(1,1)"><g><path fill="none" stroke="none"/><text fill="#000000" stroke="none" font-family="Arial" font-size="13px" font-style="normal" font-weight="bold" text-decoration="none" x="671.544189453125" y="160">view expense account</text></g></g><g transform="translate(-70,-102) scale(1,1)"><path fill="none" stroke="#000000" d="M 442 450 L 717 171" stroke-miterlimit="10"/></g><g transform="translate(-70,-102) scale(1,1)"><path fill="none" stroke="#000000" d="M 712.8639667652183 181.19280280790232 L 717 171 L 706.867982867708 175.28278283723796" stroke-miterlimit="10"/></g><g transform="translate(-70,-102) scale(1,1)"><path fill="#C0C0C0" stroke="none" d="M 999 144 C 999 134.6111584 1023.4004784 127 1053.5 127 C 1083.5995216000001 127 1108 134.6111584 1108 144 C 1108 153.3888416 1083.5995216000001 161 1053.5 161 C 1023.4004784 161 999 153.3888416 999 144 Z" opacity="0.2"/></g><g transform="translate(-70,-102) scale(1,1)"><path fill="#ffffff" stroke="none" d="M 992 137 C 992 127.6111584 1016.4004784 120 1046.5 120 C 1076.5995216000001 120 1101 127.6111584 1101 137 C 1101 146.3888416 1076.5995216000001 154 1046.5 154 C 1016.4004784 154 992 146.3888416 992 137 Z"/></g><g transform="translate(-70,-102) scale(1,1)"><path fill="none" stroke="#000000" d="M 992 137 C 992 127.6111584 1016.4004784 120 1046.5 120 C 1076.5995216000001 120 1101 127.6111584 1101 137 C 1101 146.3888416 1076.5995216000001 154 1046.5 154 C 1016.4004784 154 992 146.3888416 992 137 Z" stroke-miterlimit="10"/></g><g transform="translate(-70,-102) scale(1,1)"><g><path fill="none" stroke="none"/><text fill="#000000" stroke="none" font-family="Arial" font-size="13px" font-style="normal" font-weight="bold" text-decoration="none" x="1015.42822265625" y="144">check total</text></g></g><g transform="translate(-70,-102) scale(1,1)"><path fill="none" stroke="#000000" d="M 931 175 L 992 155" stroke-miterlimit="10" stroke-dasharray="3"/></g><g transform="translate(-70,-102) scale(1,1)"><path fill="none" stroke="#000000" d="M 983.6546042087535 162.16619627748545 L 992 155 L 981.0316480612003 154.16618002744772" stroke-miterlimit="10"/></g><g transform="translate(-70,-102) scale(1,1)"><g><path fill="none" stroke="none"/><text fill="#000000" stroke="none" font-family="Arial" font-size="13px" font-style="normal" font-weight="normal" text-decoration="none" x="923.5" y="142.5">«include»</text></g></g><g transform="translate(-70,-102) scale(1,1)"><path fill="none" stroke="#000000" d="M 1008 343 L 1043 155" stroke-miterlimit="10" stroke-dasharray="3"/></g><g transform="translate(-70,-102) scale(1,1)"><path fill="none" stroke="#000000" d="M 1045.2783830949331 165.76145763698963 L 1043 155 L 1037.001560466001 164.2205598071352" stroke-miterlimit="10"/></g><g transform="translate(-70,-102) scale(1,1)"><g><path fill="none" stroke="none"/><text fill="#000000" stroke="none" font-family="Arial" font-size="13px" font-style="normal" font-weight="normal" text-decoration="none" x="967.5" y="249.5">«include»</text></g></g><g transform="translate(-70,-102) scale(1,1)"><path fill="#C0C0C0" stroke="none" d="M 87 217 C 87 202.6405952 115.6537728 191 151 191 C 186.3462272 191 215 202.6405952 215 217 C 215 231.3594048 186.3462272 243 151 243 C 115.6537728 243 87 231.3594048 87 217 Z" opacity="0.2"/></g><g transform="translate(-70,-102) scale(1,1)"><path fill="#ffffff" stroke="none" d="M 80 210 C 80 195.6405952 108.6537728 184 144 184 C 179.3462272 184 208 195.6405952 208 210 C 208 224.3594048 179.3462272 236 144 236 C 108.6537728 236 80 224.3594048 80 210 Z"/></g><g transform="translate(-70,-102) scale(1,1)"><path fill="none" stroke="#000000" d="M 80 210 C 80 195.6405952 108.6537728 184 144 184 C 179.3462272 184 208 195.6405952 208 210 C 208 224.3594048 179.3462272 236 144 236 C 108.6537728 236 80 224.3594048 80 210 Z" stroke-miterlimit="10"/></g><g transform="translate(-70,-102) scale(1,1)"><g><path fill="none" stroke="none"/><text fill="#000000" stroke="none" font-family="Arial" font-size="13px" font-style="normal" font-weight="bold" text-decoration="none" x="113.655029296875" y="210.5">view asset</text><text fill="#000000" stroke="none" font-family="Arial" font-size="13px" font-style="normal" font-weight="bold" text-decoration="none" x="121.234130859375" y="223.5">account</text></g></g><g transform="translate(-70,-102) scale(1,1)"><path fill="#C0C0C0" stroke="none" d="M 191 145 C 191 130.6405952 223.0116368 119 262.5 119 C 301.9883632 119 334 130.6405952 334 145 C 334 159.3594048 301.9883632 171 262.5 171 C 223.0116368 171 191 159.3594048 191 145 Z" opacity="0.2"/></g><g transform="translate(-70,-102) scale(1,1)"><path fill="#ffffff" stroke="none" d="M 184 138 C 184 123.6405952 216.0116368 112 255.5 112 C 294.9883632 112 327 123.6405952 327 138 C 327 152.3594048 294.9883632 164 255.5 164 C 216.0116368 164 184 152.3594048 184 138 Z"/></g><g transform="translate(-70,-102) scale(1,1)"><path fill="none" stroke="#000000" d="M 184 138 C 184 123.6405952 216.0116368 112 255.5 112 C 294.9883632 112 327 123.6405952 327 138 C 327 152.3594048 294.9883632 164 255.5 164 C 216.0116368 164 184 152.3594048 184 138 Z" stroke-miterlimit="10"/></g><g transform="translate(-70,-102) scale(1,1)"><g><path fill="none" stroke="none"/><text fill="#000000" stroke="none" font-family="Arial" font-size="13px" font-style="normal" font-weight="bold" text-decoration="none" x="221.1845703125" y="138.5">view liability</text><text fill="#000000" stroke="none" font-family="Arial" font-size="13px" font-style="normal" font-weight="bold" text-decoration="none" x="229.484130859375" y="151.5">acccount</text></g></g><g transform="translate(-70,-102) scale(1,1)"><path fill="none" stroke="#000000" d="M 385 450 L 352 296 L 272 165" stroke-miterlimit="10"/></g><g transform="translate(-70,-102) scale(1,1)"><path fill="none" stroke="#000000" d="M 280.88923132942483 171.47931835704748 L 272 165 L 273.70406580483746 175.86720570030695" stroke-miterlimit="10"/></g><g transform="translate(-70,-102) scale(1,1)"><path fill="none" stroke="#000000" d="M 336 450 L 216 352 L 158 237" stroke-miterlimit="10"/></g><g transform="translate(-70,-102) scale(1,1)"><path fill="none" stroke="#000000" d="M 166.33496832706197 244.17832173887976 L 158 237 L 158.81787264593993 247.9695526041413" stroke-miterlimit="10"/></g></g></svg>