<svg version="1.1" xmlns="http://www.w3.org/2000/svg" xmlns:xlink="http://www.w3.org/1999/xlink" width="934.17724609375" height="622"><defs/><g><g transform="translate(-30,-22) scale(1,1)"><path fill="#ffffff" stroke="none" d="M 190.35661594460228 224.68 C 190.35661594460228 219.886167936 194.24245826954774 216 199.035888671875 216 C 203.82931907420226 216 207.71516139914772 219.886167936 207.71516139914772 224.68 C 207.71516139914772 229.47383206400002 203.82931907420226 233.36 199.035888671875 233.36 C 194.24245826954774 233.36 190.35661594460228 229.47383206400002 190.35661594460228 224.68 Z"/></g><g transform="translate(-30,-22) scale(1,1)"><path fill="none" stroke="#000000" d="M 190.35661594460228 224.68 C 190.35661594460228 219.886167936 194.24245826954774 216 199.035888671875 216 C 203.82931907420226 216 207.71516139914772 219.886167936 207.71516139914772 224.68 C 207.71516139914772 229.47383206400002 203.82931907420226 233.36 199.035888671875 233.36 C 194.24245826954774 233.36 190.35661594460228 229.47383206400002 190.35661594460228 224.68 Z" stroke-miterlimit="10"/></g><g transform="translate(-30,-22) scale(1,1)"><path fill="none" stroke="#000000" d="M 199.035888671875 233.36 L 199.035888671875 250.64" stroke-miterlimit="10"/></g><g transform="translate(-30,-22) scale(1,1)"><path fill="none" stroke="#000000" d="M 189.84607049005683 239.84 L 208.22570685369317 239.84" stroke-miterlimit="10"/></g><g transform="translate(-30,-22) scale(1,1)"><path fill="none" stroke="#000000" d="M 199.035888671875 250.64 L 186.27225230823865 268" stroke-miterlimit="10"/></g><g transform="translate(-30,-22) scale(1,1)"><path fill="none" stroke="#000000" d="M 199.035888671875 250.64 L 211.79952503551135 268" stroke-miterlimit="10"/></g><g transform="translate(-30,-22) scale(1,1)"><g><path fill="none" stroke="none"/><text fill="#000000" stroke="none" font-family="Arial" font-size="13px" font-style="normal" font-weight="bold" text-decoration="none" x="148.089599609375" y="288.5">Account Manager</text></g></g><g transform="translate(-30,-22) scale(1,1)"><g><path fill="none" stroke="none"/><text fill="#000000" stroke="none" font-family="Arial" font-size="13px" font-style="normal" font-weight="normal" text-decoration="none" x="162.197265625" y="303.5">(from Model)</text></g></g><g transform="translate(-30,-22) scale(1,1)"><path fill="#C0C0C0" stroke="none" d="M 327 505 C 327 490.6405952 352.0720512 479 383 479 C 413.9279488 479 439 490.6405952 439 505 C 439 519.3594048 413.9279488 531 383 531 C 352.0720512 531 327 519.3594048 327 505 Z" opacity="0.2"/></g><g transform="translate(-30,-22) scale(1,1)"><path fill="#ffff91" stroke="none" d="M 320 498 C 320 483.6405952 345.0720512 472 376 472 C 406.9279488 472 432 483.6405952 432 498 C 432 512.3594048 406.9279488 524 376 524 C 345.0720512 524 320 512.3594048 320 498 Z"/></g><g transform="translate(-30,-22) scale(1,1)"><path fill="none" stroke="#000000" d="M 320 498 C 320 483.6405952 345.0720512 472 376 472 C 406.9279488 472 432 483.6405952 432 498 C 432 512.3594048 406.9279488 524 376 524 C 345.0720512 524 320 512.3594048 320 498 Z" stroke-miterlimit="10"/></g><g transform="translate(-30,-22) scale(1,1)"><g><path fill="none" stroke="none"/><text fill="#000000" stroke="none" font-family="Arial" font-size="13px" font-style="normal" font-weight="bold" text-decoration="none" x="353.964111328125" y="498.5">transfer</text><text fill="#000000" stroke="none" font-family="Arial" font-size="13px" font-style="normal" font-weight="bold" text-decoration="none" x="360.09912109375" y="511.5">funds</text></g></g><g transform="translate(-30,-22) scale(1,1)"><rect fill="#C0C0C0" stroke="none" x="431" y="143" width="27.5966796875" height="15" opacity="0.2"/></g><g transform="translate(-30,-22) scale(1,1)"><rect fill="#C0C0C0" stroke="none" x="431" y="157" width="68.99169921875" height="25" opacity="0.2"/></g><g transform="translate(-30,-22) scale(1,1)"><rect fill="#ffffff" stroke="none" x="424" y="151" width="68.99169921875" height="24"/></g><g transform="translate(-30,-22) scale(1,1)"><path fill="none" stroke="#000000" d="M 424 151 L 492.99169921875 151 L 492.99169921875 175 L 424 175 L 424 151 Z Z" stroke-miterlimit="10"/></g><g transform="translate(-30,-22) scale(1,1)"><rect fill="#ffffff" stroke="none" x="424" y="136" width="27.5966796875" height="15"/></g><g transform="translate(-30,-22) scale(1,1)"><path fill="none" stroke="#000000" d="M 424 136 L 451.5966796875 136 L 451.5966796875 151 L 424 151 L 424 136 Z Z" stroke-miterlimit="10"/></g><g transform="translate(-30,-22) scale(1,1)"><rect fill="#ffffff" stroke="none" x="424" y="150" width="68.99169921875" height="25"/></g><g transform="translate(-30,-22) scale(1,1)"><path fill="none" stroke="#000000" d="M 424 150 L 492.99169921875 150 L 492.99169921875 175 L 424 175 L 424 150 Z Z" stroke-miterlimit="10"/></g><g transform="translate(-30,-22) scale(1,1)"><g><path fill="none" stroke="none"/><text fill="#000000" stroke="none" font-family="Arial" font-size="13px" font-style="normal" font-weight="bold" text-decoration="none" x="440.430419921875" y="170.5">create</text></g></g><g transform="translate(-30,-22) scale(1,1)"><rect fill="#C0C0C0" stroke="none" x="471" y="207" width="27.5966796875" height="15" opacity="0.2"/></g><g transform="translate(-30,-22) scale(1,1)"><rect fill="#C0C0C0" stroke="none" x="471" y="221" width="68.99169921875" height="25" opacity="0.2"/></g><g transform="translate(-30,-22) scale(1,1)"><rect fill="#ffffff" stroke="none" x="464" y="215" width="68.99169921875" height="24"/></g><g transform="translate(-30,-22) scale(1,1)"><path fill="none" stroke="#000000" d="M 464 215 L 532.99169921875 215 L 532.99169921875 239 L 464 239 L 464 215 Z Z" stroke-miterlimit="10"/></g><g transform="translate(-30,-22) scale(1,1)"><rect fill="#ffffff" stroke="none" x="464" y="200" width="27.5966796875" height="15"/></g><g transform="translate(-30,-22) scale(1,1)"><path fill="none" stroke="#000000" d="M 464 200 L 491.5966796875 200 L 491.5966796875 215 L 464 215 L 464 200 Z Z" stroke-miterlimit="10"/></g><g transform="translate(-30,-22) scale(1,1)"><rect fill="#ffffff" stroke="none" x="464" y="214" width="68.99169921875" height="25"/></g><g transform="translate(-30,-22) scale(1,1)"><path fill="none" stroke="#000000" d="M 464 214 L 532.99169921875 214 L 532.99169921875 239 L 464 239 L 464 214 Z Z" stroke-miterlimit="10"/></g><g transform="translate(-30,-22) scale(1,1)"><g><path fill="none" stroke="none"/><text fill="#000000" stroke="none" font-family="Arial" font-size="13px" font-style="normal" font-weight="bold" text-decoration="none" x="485.49267578125" y="234.5">view</text></g></g><g transform="translate(-30,-22) scale(1,1)"><rect fill="#C0C0C0" stroke="none" x="551" y="343" width="27.5966796875" height="15" opacity="0.2"/></g><g transform="translate(-30,-22) scale(1,1)"><rect fill="#C0C0C0" stroke="none" x="551" y="357" width="68.99169921875" height="25" opacity="0.2"/></g><g transform="translate(-30,-22) scale(1,1)"><rect fill="#ffffff" stroke="none" x="544" y="351" width="68.99169921875" height="24"/></g><g transform="translate(-30,-22) scale(1,1)"><path fill="none" stroke="#000000" d="M 544 351 L 612.99169921875 351 L 612.99169921875 375 L 544 375 L 544 351 Z Z" stroke-miterlimit="10"/></g><g transform="translate(-30,-22) scale(1,1)"><rect fill="#ffffff" stroke="none" x="544" y="336" width="27.5966796875" height="15"/></g><g transform="translate(-30,-22) scale(1,1)"><path fill="none" stroke="#000000" d="M 544 336 L 571.5966796875 336 L 571.5966796875 351 L 544 351 L 544 336 Z Z" stroke-miterlimit="10"/></g><g transform="translate(-30,-22) scale(1,1)"><rect fill="#ffffff" stroke="none" x="544" y="350" width="68.99169921875" height="25"/></g><g transform="translate(-30,-22) scale(1,1)"><path fill="none" stroke="#000000" d="M 544 350 L 612.99169921875 350 L 612.99169921875 375 L 544 375 L 544 350 Z Z" stroke-miterlimit="10"/></g><g transform="translate(-30,-22) scale(1,1)"><g><path fill="none" stroke="none"/><text fill="#000000" stroke="none" font-family="Arial" font-size="13px" font-style="normal" font-weight="bold" text-decoration="none" x="560.785888671875" y="370.5">delete</text></g></g><g transform="translate(-30,-22) scale(1,1)"><path fill="none" stroke="#000000" d="M 235 310 L 356 471" stroke-miterlimit="10"/></g><g transform="translate(-30,-22) scale(1,1)"><path fill="none" stroke="#000000" d="M 346.5292200794598 465.40497294942264 L 356 471 L 353.25942886344603 460.3468657266752" stroke-miterlimit="10"/></g><g transform="translate(-30,-22) scale(1,1)"><path fill="#C0C0C0" stroke="none" d="M 223 624 C 223 614.6111584 256.8024976 607 298.5 607 C 340.1975024 607 374 614.6111584 374 624 C 374 633.3888416 340.1975024 641 298.5 641 C 256.8024976 641 223 633.3888416 223 624 Z" opacity="0.2"/></g><g transform="translate(-30,-22) scale(1,1)"><path fill="#ffffff" stroke="none" d="M 216 617 C 216 607.6111584 249.80249759999998 600 291.5 600 C 333.1975024 600 367 607.6111584 367 617 C 367 626.3888416 333.1975024 634 291.5 634 C 249.80249759999998 634 216 626.3888416 216 617 Z"/></g><g transform="translate(-30,-22) scale(1,1)"><path fill="none" stroke="#000000" d="M 216 617 C 216 607.6111584 249.80249759999998 600 291.5 600 C 333.1975024 600 367 607.6111584 367 617 C 367 626.3888416 333.1975024 634 291.5 634 C 249.80249759999998 634 216 626.3888416 216 617 Z" stroke-miterlimit="10"/></g><g transform="translate(-30,-22) scale(1,1)"><g><path fill="none" stroke="none"/><text fill="#000000" stroke="none" font-family="Arial" font-size="13px" font-style="normal" font-weight="bold" text-decoration="none" x="246.695068359375" y="624">calculate equity</text></g></g><g transform="translate(-30,-22) scale(1,1)"><path fill="none" stroke="#000000" d="M 211 310 L 286 599" stroke-miterlimit="10"/></g><g transform="translate(-30,-22) scale(1,1)"><path fill="none" stroke="#000000" d="M 279.3726444476638 590.2205832549697 L 286 599 L 287.52173706288244 588.1057668323351" stroke-miterlimit="10"/></g><g transform="translate(-30,-22) scale(1,1)"><path fill="#C0C0C0" stroke="none" d="M 47 568 C 47 558.6111584 79.01163679999999 551 118.5 551 C 157.9883632 551 190 558.6111584 190 568 C 190 577.3888416 157.9883632 585 118.5 585 C 79.01163679999999 585 47 577.3888416 47 568 Z" opacity="0.2"/></g><g transform="translate(-30,-22) scale(1,1)"><path fill="#ffffff" stroke="none" d="M 40 561 C 40 551.6111584 72.01163679999999 544 111.5 544 C 150.9883632 544 183 551.6111584 183 561 C 183 570.3888416 150.9883632 578 111.5 578 C 72.01163679999999 578 40 570.3888416 40 561 Z"/></g><g transform="translate(-30,-22) scale(1,1)"><path fill="none" stroke="#000000" d="M 40 561 C 40 551.6111584 72.01163679999999 544 111.5 544 C 150.9883632 544 183 551.6111584 183 561 C 183 570.3888416 150.9883632 578 111.5 578 C 72.01163679999999 578 40 570.3888416 40 561 Z" stroke-miterlimit="10"/></g><g transform="translate(-30,-22) scale(1,1)"><g><path fill="none" stroke="none"/><text fill="#000000" stroke="none" font-family="Arial" font-size="13px" font-style="normal" font-weight="bold" text-decoration="none" x="69.589599609375" y="568">calculate profit</text></g></g><g transform="translate(-30,-22) scale(1,1)"><path fill="none" stroke="#000000" d="M 185 310 L 116 543" stroke-miterlimit="10"/></g><g transform="translate(-30,-22) scale(1,1)"><path fill="none" stroke="#000000" d="M 114.84942096897483 532.0603396810794 L 116 543 L 122.92192576025718 534.450909769485" stroke-miterlimit="10"/></g><g transform="translate(-30,-22) scale(1,1)"><rect fill="#C0C0C0" stroke="none" x="511" y="271" width="27.5966796875" height="15" opacity="0.2"/></g><g transform="translate(-30,-22) scale(1,1)"><rect fill="#C0C0C0" stroke="none" x="511" y="285" width="68.99169921875" height="25" opacity="0.2"/></g><g transform="translate(-30,-22) scale(1,1)"><rect fill="#ffffff" stroke="none" x="504" y="279" width="68.99169921875" height="24"/></g><g transform="translate(-30,-22) scale(1,1)"><path fill="none" stroke="#000000" d="M 504 279 L 572.99169921875 279 L 572.99169921875 303 L 504 303 L 504 279 Z Z" stroke-miterlimit="10"/></g><g transform="translate(-30,-22) scale(1,1)"><rect fill="#ffffff" stroke="none" x="504" y="264" width="27.5966796875" height="15"/></g><g transform="translate(-30,-22) scale(1,1)"><path fill="none" stroke="#000000" d="M 504 264 L 531.5966796875 264 L 531.5966796875 279 L 504 279 L 504 264 Z Z" stroke-miterlimit="10"/></g><g transform="translate(-30,-22) scale(1,1)"><rect fill="#ffffff" stroke="none" x="504" y="278" width="68.99169921875" height="25"/></g><g transform="translate(-30,-22) scale(1,1)"><path fill="none" stroke="#000000" d="M 504 278 L 572.99169921875 278 L 572.99169921875 303 L 504 303 L 504 278 Z Z" stroke-miterlimit="10"/></g><g transform="translate(-30,-22) scale(1,1)"><g><path fill="none" stroke="none"/><text fill="#000000" stroke="none" font-family="Arial" font-size="13px" font-style="normal" font-weight="bold" text-decoration="none" x="518.614990234375" y="298.5">update</text></g></g><g transform="translate(-30,-22) scale(1,1)"><path fill="#C0C0C0" stroke="none" d="M 559 568 C 559 558.6111584 603.3238048 551 658 551 C 712.6761952 551 757 558.6111584 757 568 C 757 577.3888416 712.6761952 585 658 585 C 603.3238048 585 559 577.3888416 559 568 Z" opacity="0.2"/></g><g transform="translate(-30,-22) scale(1,1)"><path fill="#ffffff" stroke="none" d="M 552 561 C 552 551.6111584 596.3238048 544 651 544 C 705.6761952 544 750 551.6111584 750 561 C 750 570.3888416 705.6761952 578 651 578 C 596.3238048 578 552 570.3888416 552 561 Z"/></g><g transform="translate(-30,-22) scale(1,1)"><path fill="none" stroke="#000000" d="M 552 561 C 552 551.6111584 596.3238048 544 651 544 C 705.6761952 544 750 551.6111584 750 561 C 750 570.3888416 705.6761952 578 651 578 C 596.3238048 578 552 570.3888416 552 561 Z" stroke-miterlimit="10"/></g><g transform="translate(-30,-22) scale(1,1)"><g><path fill="none" stroke="none"/><text fill="#000000" stroke="none" font-family="Arial" font-size="13px" font-style="normal" font-weight="bold" text-decoration="none" x="590.291015625" y="568">send request to bank</text></g></g><g transform="translate(-30,-22) scale(1,1)"><path fill="none" stroke="#000000" d="M 572 543 L 433 511" stroke-miterlimit="10"/></g><g transform="translate(-30,-22) scale(1,1)"><path fill="#FFFFFF" stroke="none" d="M 454.69602985245945 507.35551256811203 L 433 511 L 450.918451610537 523.7643680564627"/></g><g transform="translate(-30,-22) scale(1,1)"><path fill="none" stroke="#000000" d="M 454.69602985245945 507.35551256811203 L 433 511 L 450.918451610537 523.7643680564627 L 454.69602985245945 507.35551256811203" stroke-miterlimit="10"/></g><g transform="translate(-30,-22) scale(1,1)"><path fill="#ffffff" stroke="none" d="M 920.4093503196023 481.68 C 920.4093503196023 476.886167936 924.2951926445477 473 929.088623046875 473 C 933.8820534492023 473 937.7678957741477 476.886167936 937.7678957741477 481.68 C 937.7678957741477 486.473832064 933.8820534492023 490.36 929.088623046875 490.36 C 924.2951926445477 490.36 920.4093503196023 486.473832064 920.4093503196023 481.68 Z"/></g><g transform="translate(-30,-22) scale(1,1)"><path fill="none" stroke="#000000" d="M 920.4093503196023 481.68 C 920.4093503196023 476.886167936 924.2951926445477 473 929.088623046875 473 C 933.8820534492023 473 937.7678957741477 476.886167936 937.7678957741477 481.68 C 937.7678957741477 486.473832064 933.8820534492023 490.36 929.088623046875 490.36 C 924.2951926445477 490.36 920.4093503196023 486.473832064 920.4093503196023 481.68 Z" stroke-miterlimit="10"/></g><g transform="translate(-30,-22) scale(1,1)"><path fill="none" stroke="#000000" d="M 929.088623046875 490.36 L 929.088623046875 507.64" stroke-miterlimit="10"/></g><g transform="translate(-30,-22) scale(1,1)"><path fill="none" stroke="#000000" d="M 919.8988048650568 496.84 L 938.2784412286932 496.84" stroke-miterlimit="10"/></g><g transform="translate(-30,-22) scale(1,1)"><path fill="none" stroke="#000000" d="M 929.088623046875 507.64 L 916.3249866832386 525" stroke-miterlimit="10"/></g><g transform="translate(-30,-22) scale(1,1)"><path fill="none" stroke="#000000" d="M 929.088623046875 507.64 L 941.8522594105114 525" stroke-miterlimit="10"/></g><g transform="translate(-30,-22) scale(1,1)"><g><path fill="none" stroke="none"/><text fill="#000000" stroke="none" font-family="Arial" font-size="13px" font-style="normal" font-weight="bold" text-decoration="none" x="914.273193359375" y="545.5">Bank</text></g></g><g transform="translate(-30,-22) scale(1,1)"><path fill="#C0C0C0" stroke="none" d="M 47 137 C 47 122.6405952 83.7126464 111 129 111 C 174.28735360000002 111 211 122.6405952 211 137 C 211 151.3594048 174.28735360000002 163 129 163 C 83.7126464 163 47 151.3594048 47 137 Z" opacity="0.2"/></g><g transform="translate(-30,-22) scale(1,1)"><path fill="#ffffff" stroke="none" d="M 40 130 C 40 115.6405952 76.7126464 104 122 104 C 167.28735360000002 104 204 115.6405952 204 130 C 204 144.3594048 167.28735360000002 156 122 156 C 76.7126464 156 40 144.3594048 40 130 Z"/></g><g transform="translate(-30,-22) scale(1,1)"><path fill="none" stroke="#000000" d="M 40 130 C 40 115.6405952 76.7126464 104 122 104 C 167.28735360000002 104 204 115.6405952 204 130 C 204 144.3594048 167.28735360000002 156 122 156 C 76.7126464 156 40 144.3594048 40 130 Z" stroke-miterlimit="10"/></g><g transform="translate(-30,-22) scale(1,1)"><g><path fill="none" stroke="none"/><text fill="#000000" stroke="none" font-family="Arial" font-size="13px" font-style="normal" font-weight="bold" text-decoration="none" x="98.510498046875" y="130.5">approve</text><text fill="#000000" stroke="none" font-family="Arial" font-size="13px" font-style="normal" font-weight="bold" text-decoration="none" x="73.583251953125" y="143.5">payment request</text></g></g><g transform="translate(-30,-22) scale(1,1)"><path fill="#C0C0C0" stroke="none" d="M 247 169 C 247 154.6405952 279.2354944 143 319 143 C 358.7645056 143 391 154.6405952 391 169 C 391 183.3594048 358.7645056 195 319 195 C 279.2354944 195 247 183.3594048 247 169 Z" opacity="0.2"/></g><g transform="translate(-30,-22) scale(1,1)"><path fill="#ffffff" stroke="none" d="M 240 162 C 240 147.6405952 272.2354944 136 312 136 C 351.7645056 136 384 147.6405952 384 162 C 384 176.3594048 351.7645056 188 312 188 C 272.2354944 188 240 176.3594048 240 162 Z"/></g><g transform="translate(-30,-22) scale(1,1)"><path fill="none" stroke="#000000" d="M 240 162 C 240 147.6405952 272.2354944 136 312 136 C 351.7645056 136 384 147.6405952 384 162 C 384 176.3594048 351.7645056 188 312 188 C 272.2354944 188 240 176.3594048 240 162 Z" stroke-miterlimit="10"/></g><g transform="translate(-30,-22) scale(1,1)"><g><path fill="none" stroke="none"/><text fill="#000000" stroke="none" font-family="Arial" font-size="13px" font-style="normal" font-weight="bold" text-decoration="none" x="271.168701171875" y="162.5">deny payment</text><text fill="#000000" stroke="none" font-family="Arial" font-size="13px" font-style="normal" font-weight="bold" text-decoration="none" x="290.319580078125" y="175.5">request</text></g></g><g transform="translate(-30,-22) scale(1,1)"><path fill="#C0C0C0" stroke="none" d="M 183 56 C 183 46.6111584 218.817216 39 263 39 C 307.18278399999997 39 343 46.6111584 343 56 C 343 65.3888416 307.18278399999997 73 263 73 C 218.817216 73 183 65.3888416 183 56 Z" opacity="0.2"/></g><g transform="translate(-30,-22) scale(1,1)"><path fill="#ffffff" stroke="none" d="M 176 49 C 176 39.6111584 211.817216 32 256 32 C 300.18278399999997 32 336 39.6111584 336 49 C 336 58.3888416 300.18278399999997 66 256 66 C 211.817216 66 176 58.3888416 176 49 Z"/></g><g transform="translate(-30,-22) scale(1,1)"><path fill="none" stroke="#000000" d="M 176 49 C 176 39.6111584 211.817216 32 256 32 C 300.18278399999997 32 336 39.6111584 336 49 C 336 58.3888416 300.18278399999997 66 256 66 C 211.817216 66 176 58.3888416 176 49 Z" stroke-miterlimit="10"/></g><g transform="translate(-30,-22) scale(1,1)"><g><path fill="none" stroke="none"/><text fill="#000000" stroke="none" font-family="Arial" font-size="13px" font-style="normal" font-weight="bold" text-decoration="none" x="209.024169921875" y="56">send notification</text></g></g><g transform="translate(-30,-22) scale(1,1)"><path fill="none" stroke="#000000" d="M 171 214 L 138 157" stroke-miterlimit="10"/></g><g transform="translate(-30,-22) scale(1,1)"><path fill="none" stroke="#000000" d="M 146.73489602464772 163.68592487533277 L 138 157 L 139.4488413941362 167.90416702983944" stroke-miterlimit="10"/></g><g transform="translate(-30,-22) scale(1,1)"><path fill="none" stroke="#000000" d="M 253 214 L 281 189" stroke-miterlimit="10"/></g><g transform="translate(-30,-22) scale(1,1)"><path fill="none" stroke="#000000" d="M 276.2228832875316 198.90853954503163 L 281 189 L 270.6156728741471 192.62846388204096" stroke-miterlimit="10"/></g><g transform="translate(-30,-22) scale(1,1)"><path fill="none" stroke="#000000" d="M 167 103 L 226 67" stroke-miterlimit="10" stroke-dasharray="3"/></g><g transform="translate(-30,-22) scale(1,1)"><path fill="none" stroke="#000000" d="M 219.51733052249935 75.88678774617024 L 226 67 L 215.13215257398576 68.69996833055073" stroke-miterlimit="10"/></g><g transform="translate(-30,-22) scale(1,1)"><g><path fill="none" stroke="none"/><text fill="#000000" stroke="none" font-family="Arial" font-size="13px" font-style="normal" font-weight="normal" text-decoration="none" x="152.5" y="65.5">«include»</text></g></g><g transform="translate(-30,-22) scale(1,1)"><path fill="none" stroke="#000000" d="M 299 135 L 265 67" stroke-miterlimit="10" stroke-dasharray="3"/></g><g transform="translate(-30,-22) scale(1,1)"><path fill="none" stroke="#000000" d="M 273.3099935049528 74.20721915496142 L 265 67 L 265.77977922099745 77.97232629693906" stroke-miterlimit="10"/></g><g transform="translate(-30,-22) scale(1,1)"><g><path fill="none" stroke="none"/><text fill="#000000" stroke="none" font-family="Arial" font-size="13px" font-style="normal" font-weight="normal" text-decoration="none" x="227.5" y="120.5">«include»</text></g></g><g transform="translate(-30,-22) scale(1,1)"><path fill="none" stroke="#000000" d="M 751 543 L 903 516" stroke-miterlimit="10"/></g><g transform="translate(-30,-22) scale(1,1)"><path fill="none" stroke="#000000" d="M 893.7301779041914 521.9220265376016 L 903 516 L 892.257740812556 513.6327510587656" stroke-miterlimit="10"/></g></g></svg>