<svg version="1.1" xmlns="http://www.w3.org/2000/svg" xmlns:xlink="http://www.w3.org/1999/xlink" width="572" height="424"><defs/><g><g transform="translate(-78,-150) scale(1,1)"><path fill="#ffffff" stroke="none" d="M 120.65935031960228 300.68 C 120.65935031960228 295.886167936 124.54519264454774 292 129.338623046875 292 C 134.13205344920226 292 138.01789577414772 295.886167936 138.01789577414772 300.68 C 138.01789577414772 305.473832064 134.13205344920226 309.36 129.338623046875 309.36 C 124.54519264454774 309.36 120.65935031960228 305.473832064 120.65935031960228 300.68 Z"/></g><g transform="translate(-78,-150) scale(1,1)"><path fill="none" stroke="#000000" d="M 120.65935031960228 300.68 C 120.65935031960228 295.886167936 124.54519264454774 292 129.338623046875 292 C 134.13205344920226 292 138.01789577414772 295.886167936 138.01789577414772 300.68 C 138.01789577414772 305.473832064 134.13205344920226 309.36 129.338623046875 309.36 C 124.54519264454774 309.36 120.65935031960228 305.473832064 120.65935031960228 300.68 Z" stroke-miterlimit="10"/></g><g transform="translate(-78,-150) scale(1,1)"><path fill="none" stroke="#000000" d="M 129.338623046875 309.36 L 129.338623046875 326.64" stroke-miterlimit="10"/></g><g transform="translate(-78,-150) scale(1,1)"><path fill="none" stroke="#000000" d="M 120.14880486505683 315.84 L 138.52844122869317 315.84" stroke-miterlimit="10"/></g><g transform="translate(-78,-150) scale(1,1)"><path fill="none" stroke="#000000" d="M 129.338623046875 326.64 L 116.57498668323865 344" stroke-miterlimit="10"/></g><g transform="translate(-78,-150) scale(1,1)"><path fill="none" stroke="#000000" d="M 129.338623046875 326.64 L 142.10225941051135 344" stroke-miterlimit="10"/></g><g transform="translate(-78,-150) scale(1,1)"><g><path fill="none" stroke="none"/><text fill="#000000" stroke="none" font-family="Arial" font-size="13px" font-style="normal" font-weight="bold" text-decoration="none" x="111.635009765625" y="364.5">Public</text></g></g><g transform="translate(-78,-150) scale(1,1)"><g><path fill="none" stroke="none"/><text fill="#000000" stroke="none" font-family="Arial" font-size="13px" font-style="normal" font-weight="normal" text-decoration="none" x="92.5" y="379.5">(from Model)</text></g></g><g transform="translate(-78,-150) scale(1,1)"><path fill="#C0C0C0" stroke="none" d="M 431 193 C 431 178.6405952 462.7877792 167 502 167 C 541.2122208 167 573 178.6405952 573 193 C 573 207.3594048 541.2122208 219 502 219 C 462.7877792 219 431 207.3594048 431 193 Z" opacity="0.2"/></g><g transform="translate(-78,-150) scale(1,1)"><path fill="#ffffff" stroke="none" d="M 424 186 C 424 171.6405952 455.7877792 160 495 160 C 534.2122208 160 566 171.6405952 566 186 C 566 200.3594048 534.2122208 212 495 212 C 455.7877792 212 424 200.3594048 424 186 Z"/></g><g transform="translate(-78,-150) scale(1,1)"><path fill="none" stroke="#000000" d="M 424 186 C 424 171.6405952 455.7877792 160 495 160 C 534.2122208 160 566 171.6405952 566 186 C 566 200.3594048 534.2122208 212 495 212 C 455.7877792 212 424 200.3594048 424 186 Z" stroke-miterlimit="10"/></g><g transform="translate(-78,-150) scale(1,1)"><g><path fill="none" stroke="none"/><text fill="#000000" stroke="none" font-family="Arial" font-size="13px" font-style="normal" font-weight="bold" text-decoration="none" x="479.10546875" y="186.5">make</text><text fill="#000000" stroke="none" font-family="Arial" font-size="13px" font-style="normal" font-weight="bold" text-decoration="none" x="470.06005859375" y="199.5">donation</text></g></g><g transform="translate(-78,-150) scale(1,1)"><path fill="#C0C0C0" stroke="none" d="M 455 289 C 455 274.6405952 494.3989376 263 543 263 C 591.6010624 263 631 274.6405952 631 289 C 631 303.3594048 591.6010624 315 543 315 C 494.3989376 315 455 303.3594048 455 289 Z" opacity="0.2"/></g><g transform="translate(-78,-150) scale(1,1)"><path fill="#ffffff" stroke="none" d="M 448 282 C 448 267.6405952 487.3989376 256 536 256 C 584.6010624 256 624 267.6405952 624 282 C 624 296.3594048 584.6010624 308 536 308 C 487.3989376 308 448 296.3594048 448 282 Z"/></g><g transform="translate(-78,-150) scale(1,1)"><path fill="none" stroke="#000000" d="M 448 282 C 448 267.6405952 487.3989376 256 536 256 C 584.6010624 256 624 267.6405952 624 282 C 624 296.3594048 584.6010624 308 536 308 C 487.3989376 308 448 296.3594048 448 282 Z" stroke-miterlimit="10"/></g><g transform="translate(-78,-150) scale(1,1)"><g><path fill="none" stroke="none"/><text fill="#000000" stroke="none" font-family="Arial" font-size="13px" font-style="normal" font-weight="bold" text-decoration="none" x="493.37548828125" y="282.5">view profit/loss</text><text fill="#000000" stroke="none" font-family="Arial" font-size="13px" font-style="normal" font-weight="bold" text-decoration="none" x="507.457763671875" y="295.5">statement</text></g></g><g transform="translate(-78,-150) scale(1,1)"><path fill="#C0C0C0" stroke="none" d="M 471 369 C 471 354.6405952 501.4446336 343 539 343 C 576.5553664 343 607 354.6405952 607 369 C 607 383.3594048 576.5553664 395 539 395 C 501.4446336 395 471 383.3594048 471 369 Z" opacity="0.2"/></g><g transform="translate(-78,-150) scale(1,1)"><path fill="#ffffff" stroke="none" d="M 464 362 C 464 347.6405952 494.4446336 336 532 336 C 569.5553664 336 600 347.6405952 600 362 C 600 376.3594048 569.5553664 388 532 388 C 494.4446336 388 464 376.3594048 464 362 Z"/></g><g transform="translate(-78,-150) scale(1,1)"><path fill="none" stroke="#000000" d="M 464 362 C 464 347.6405952 494.4446336 336 532 336 C 569.5553664 336 600 347.6405952 600 362 C 600 376.3594048 569.5553664 388 532 388 C 494.4446336 388 464 376.3594048 464 362 Z" stroke-miterlimit="10"/></g><g transform="translate(-78,-150) scale(1,1)"><g><path fill="none" stroke="none"/><text fill="#000000" stroke="none" font-family="Arial" font-size="13px" font-style="normal" font-weight="bold" text-decoration="none" x="494.421875" y="362.5">view balance</text><text fill="#000000" stroke="none" font-family="Arial" font-size="13px" font-style="normal" font-weight="bold" text-decoration="none" x="516.09912109375" y="375.5">sheet</text></g></g><g transform="translate(-78,-150) scale(1,1)"><path fill="#C0C0C0" stroke="none" d="M 447 449 C 447 434.6405952 491.77152 423 547 423 C 602.22848 423 647 434.6405952 647 449 C 647 463.3594048 602.22848 475 547 475 C 491.77152 475 447 463.3594048 447 449 Z" opacity="0.2"/></g><g transform="translate(-78,-150) scale(1,1)"><path fill="#ffffff" stroke="none" d="M 440 442 C 440 427.6405952 484.77152 416 540 416 C 595.22848 416 640 427.6405952 640 442 C 640 456.3594048 595.22848 468 540 468 C 484.77152 468 440 456.3594048 440 442 Z"/></g><g transform="translate(-78,-150) scale(1,1)"><path fill="none" stroke="#000000" d="M 440 442 C 440 427.6405952 484.77152 416 540 416 C 595.22848 416 640 427.6405952 640 442 C 640 456.3594048 595.22848 468 540 468 C 484.77152 468 440 456.3594048 440 442 Z" stroke-miterlimit="10"/></g><g transform="translate(-78,-150) scale(1,1)"><g><path fill="none" stroke="none"/><text fill="#000000" stroke="none" font-family="Arial" font-size="13px" font-style="normal" font-weight="bold" text-decoration="none" x="489.421875" y="442.5">view statement of</text><text fill="#000000" stroke="none" font-family="Arial" font-size="13px" font-style="normal" font-weight="bold" text-decoration="none" x="512.905029296875" y="455.5">cash flow</text></g></g><g transform="translate(-78,-150) scale(1,1)"><path fill="#C0C0C0" stroke="none" d="M 431 545 C 431 530.6405952 466.81721600000003 519 511 519 C 555.182784 519 591 530.6405952 591 545 C 591 559.3594048 555.182784 571 511 571 C 466.81721600000003 571 431 559.3594048 431 545 Z" opacity="0.2"/></g><g transform="translate(-78,-150) scale(1,1)"><path fill="#ffffff" stroke="none" d="M 424 538 C 424 523.6405952 459.81721600000003 512 504 512 C 548.182784 512 584 523.6405952 584 538 C 584 552.3594048 548.182784 564 504 564 C 459.81721600000003 564 424 552.3594048 424 538 Z"/></g><g transform="translate(-78,-150) scale(1,1)"><path fill="none" stroke="#000000" d="M 424 538 C 424 523.6405952 459.81721600000003 512 504 512 C 548.182784 512 584 523.6405952 584 538 C 584 552.3594048 548.182784 564 504 564 C 459.81721600000003 564 424 552.3594048 424 538 Z" stroke-miterlimit="10"/></g><g transform="translate(-78,-150) scale(1,1)"><g><path fill="none" stroke="none"/><text fill="#000000" stroke="none" font-family="Arial" font-size="13px" font-style="normal" font-weight="bold" text-decoration="none" x="468.2373046875" y="538.5">view income</text><text fill="#000000" stroke="none" font-family="Arial" font-size="13px" font-style="normal" font-weight="bold" text-decoration="none" x="475.457763671875" y="551.5">statement</text></g></g><g transform="translate(-78,-150) scale(1,1)"><path fill="none" stroke="#000000" d="M 172 320 L 430 213" stroke-miterlimit="10"/></g><g transform="translate(-78,-150) scale(1,1)"><path fill="none" stroke="#000000" d="M 422.2252454607559 220.7815931437273 L 430 213 L 419.0000010628753 213.00483562360395" stroke-miterlimit="10"/></g><g transform="translate(-78,-150) scale(1,1)"><path fill="none" stroke="#000000" d="M 172 332 L 447 294" stroke-miterlimit="10"/></g><g transform="translate(-78,-150) scale(1,1)"><path fill="none" stroke="#000000" d="M 437.5091853367454 299.5609744674608 L 447 294 L 436.35677783668115 291.22118334857475" stroke-miterlimit="10"/></g><g transform="translate(-78,-150) scale(1,1)"><path fill="none" stroke="#000000" d="M 172 341 L 463 358" stroke-miterlimit="10"/></g><g transform="translate(-78,-150) scale(1,1)"><path fill="none" stroke="#000000" d="M 452.6091242274646 361.60966766887714 L 463 358 L 453.10012079228034 353.20496176526603" stroke-miterlimit="10"/></g><g transform="translate(-78,-150) scale(1,1)"><path fill="none" stroke="#000000" d="M 172 349 L 439 416" stroke-miterlimit="10"/></g><g transform="translate(-78,-150) scale(1,1)"><path fill="none" stroke="#000000" d="M 428.118376958341 417.60943467690845 L 439 416 L 430.1674883830084 409.44357273084586" stroke-miterlimit="10"/></g><g transform="translate(-78,-150) scale(1,1)"><path fill="none" stroke="#000000" d="M 172 361 L 453 511" stroke-miterlimit="10"/></g><g transform="translate(-78,-150) scale(1,1)"><path fill="none" stroke="#000000" d="M 442.05237968065205 509.9278016305738 L 453 511 L 446.0170221721318 502.500704696535" stroke-miterlimit="10"/></g></g></svg>