<svg version="1.1" xmlns="http://www.w3.org/2000/svg" xmlns:xlink="http://www.w3.org/1999/xlink" width="656" height="456"><defs/><g><g transform="translate(-202,-334) scale(1,1)"><path fill="#C0C0C0" stroke="none" d="M 607 377 C 607 362.6405952 636.9969184 351 674 351 C 711.0030816 351 741 362.6405952 741 377 C 741 391.3594048 711.0030816 403 674 403 C 636.9969184 403 607 391.3594048 607 377 Z" opacity="0.2"/></g><g transform="translate(-202,-334) scale(1,1)"><path fill="#ffffff" stroke="none" d="M 600 370 C 600 355.6405952 629.9969184 344 667 344 C 704.0030816 344 734 355.6405952 734 370 C 734 384.3594048 704.0030816 396 667 396 C 629.9969184 396 600 384.3594048 600 370 Z"/></g><g transform="translate(-202,-334) scale(1,1)"><path fill="none" stroke="#000000" d="M 600 370 C 600 355.6405952 629.9969184 344 667 344 C 704.0030816 344 734 355.6405952 734 370 C 734 384.3594048 704.0030816 396 667 396 C 629.9969184 396 600 384.3594048 600 370 Z" stroke-miterlimit="10"/></g><g transform="translate(-202,-334) scale(1,1)"><g><path fill="none" stroke="none"/><text fill="#000000" stroke="none" font-family="Arial" font-size="13px" font-style="normal" font-weight="bold" text-decoration="none" x="649.2900390625" y="370.5">delete</text><text fill="#000000" stroke="none" font-family="Arial" font-size="13px" font-style="normal" font-weight="bold" text-decoration="none" x="646.766845703125" y="383.5">invoice</text></g></g><g transform="translate(-202,-334) scale(1,1)"><path fill="#C0C0C0" stroke="none" d="M 655 497 C 655 482.6405952 699.77152 471 755 471 C 810.22848 471 855 482.6405952 855 497 C 855 511.3594048 810.22848 523 755 523 C 699.77152 523 655 511.3594048 655 497 Z" opacity="0.2"/></g><g transform="translate(-202,-334) scale(1,1)"><path fill="#ffffff" stroke="none" d="M 648 490 C 648 475.6405952 692.77152 464 748 464 C 803.22848 464 848 475.6405952 848 490 C 848 504.3594048 803.22848 516 748 516 C 692.77152 516 648 504.3594048 648 490 Z"/></g><g transform="translate(-202,-334) scale(1,1)"><path fill="none" stroke="#000000" d="M 648 490 C 648 475.6405952 692.77152 464 748 464 C 803.22848 464 848 475.6405952 848 490 C 848 504.3594048 803.22848 516 748 516 C 692.77152 516 648 504.3594048 648 490 Z" stroke-miterlimit="10"/></g><g transform="translate(-202,-334) scale(1,1)"><g><path fill="none" stroke="none"/><text fill="#000000" stroke="none" font-family="Arial" font-size="13px" font-style="normal" font-weight="bold" text-decoration="none" x="700.668701171875" y="490.5">delete profit/loss</text><text fill="#000000" stroke="none" font-family="Arial" font-size="13px" font-style="normal" font-weight="bold" text-decoration="none" x="719.457763671875" y="503.5">statement</text></g></g><g transform="translate(-202,-334) scale(1,1)"><path fill="#C0C0C0" stroke="none" d="M 663 585 C 663 570.6405952 705.9806592 559 759 559 C 812.0193408 559 855 570.6405952 855 585 C 855 599.3594048 812.0193408 611 759 611 C 705.9806592 611 663 599.3594048 663 585 Z" opacity="0.2"/></g><g transform="translate(-202,-334) scale(1,1)"><path fill="#ffffff" stroke="none" d="M 656 578 C 656 563.6405952 698.9806592 552 752 552 C 805.0193408 552 848 563.6405952 848 578 C 848 592.3594048 805.0193408 604 752 604 C 698.9806592 604 656 592.3594048 656 578 Z"/></g><g transform="translate(-202,-334) scale(1,1)"><path fill="none" stroke="#000000" d="M 656 578 C 656 563.6405952 698.9806592 552 752 552 C 805.0193408 552 848 563.6405952 848 578 C 848 592.3594048 805.0193408 604 752 604 C 698.9806592 604 656 592.3594048 656 578 Z" stroke-miterlimit="10"/></g><g transform="translate(-202,-334) scale(1,1)"><g><path fill="none" stroke="none"/><text fill="#000000" stroke="none" font-family="Arial" font-size="13px" font-style="normal" font-weight="bold" text-decoration="none" x="709.715087890625" y="578.5">delete balance</text><text fill="#000000" stroke="none" font-family="Arial" font-size="13px" font-style="normal" font-weight="bold" text-decoration="none" x="736.09912109375" y="591.5">sheet</text></g></g><g transform="translate(-202,-334) scale(1,1)"><path fill="#C0C0C0" stroke="none" d="M 607 673 C 607 658.6405952 655.3532416 647 715 647 C 774.6467584 647 823 658.6405952 823 673 C 823 687.3594048 774.6467584 699 715 699 C 655.3532416 699 607 687.3594048 607 673 Z" opacity="0.2"/></g><g transform="translate(-202,-334) scale(1,1)"><path fill="#ffffff" stroke="none" d="M 600 666 C 600 651.6405952 648.3532416 640 708 640 C 767.6467584 640 816 651.6405952 816 666 C 816 680.3594048 767.6467584 692 708 692 C 648.3532416 692 600 680.3594048 600 666 Z"/></g><g transform="translate(-202,-334) scale(1,1)"><path fill="none" stroke="#000000" d="M 600 666 C 600 651.6405952 648.3532416 640 708 640 C 767.6467584 640 816 651.6405952 816 666 C 816 680.3594048 767.6467584 692 708 692 C 648.3532416 692 600 680.3594048 600 666 Z" stroke-miterlimit="10"/></g><g transform="translate(-202,-334) scale(1,1)"><g><path fill="none" stroke="none"/><text fill="#000000" stroke="none" font-family="Arial" font-size="13px" font-style="normal" font-weight="bold" text-decoration="none" x="652.715087890625" y="666.5">delete statement of</text><text fill="#000000" stroke="none" font-family="Arial" font-size="13px" font-style="normal" font-weight="bold" text-decoration="none" x="680.905029296875" y="679.5">cash flow</text></g></g><g transform="translate(-202,-334) scale(1,1)"><path fill="#C0C0C0" stroke="none" d="M 519 761 C 519 746.6405952 560.1897984 735 611 735 C 661.8102016 735 703 746.6405952 703 761 C 703 775.3594048 661.8102016 787 611 787 C 560.1897984 787 519 775.3594048 519 761 Z" opacity="0.2"/></g><g transform="translate(-202,-334) scale(1,1)"><path fill="#ffffff" stroke="none" d="M 512 754 C 512 739.6405952 553.1897984 728 604 728 C 654.8102016 728 696 739.6405952 696 754 C 696 768.3594048 654.8102016 780 604 780 C 553.1897984 780 512 768.3594048 512 754 Z"/></g><g transform="translate(-202,-334) scale(1,1)"><path fill="none" stroke="#000000" d="M 512 754 C 512 739.6405952 553.1897984 728 604 728 C 654.8102016 728 696 739.6405952 696 754 C 696 768.3594048 654.8102016 780 604 780 C 553.1897984 780 512 768.3594048 512 754 Z" stroke-miterlimit="10"/></g><g transform="translate(-202,-334) scale(1,1)"><g><path fill="none" stroke="none"/><text fill="#000000" stroke="none" font-family="Arial" font-size="13px" font-style="normal" font-weight="bold" text-decoration="none" x="563.530517578125" y="754.5">delete income</text><text fill="#000000" stroke="none" font-family="Arial" font-size="13px" font-style="normal" font-weight="bold" text-decoration="none" x="575.457763671875" y="767.5">statement</text></g></g><g transform="translate(-202,-334) scale(1,1)"><path fill="#ffffff" stroke="none" d="M 262.35661594460225 423.68 C 262.35661594460225 418.886167936 266.24245826954774 415 271.035888671875 415 C 275.82931907420226 415 279.71516139914775 418.886167936 279.71516139914775 423.68 C 279.71516139914775 428.473832064 275.82931907420226 432.36 271.035888671875 432.36 C 266.24245826954774 432.36 262.35661594460225 428.473832064 262.35661594460225 423.68 Z"/></g><g transform="translate(-202,-334) scale(1,1)"><path fill="none" stroke="#000000" d="M 262.35661594460225 423.68 C 262.35661594460225 418.886167936 266.24245826954774 415 271.035888671875 415 C 275.82931907420226 415 279.71516139914775 418.886167936 279.71516139914775 423.68 C 279.71516139914775 428.473832064 275.82931907420226 432.36 271.035888671875 432.36 C 266.24245826954774 432.36 262.35661594460225 428.473832064 262.35661594460225 423.68 Z" stroke-miterlimit="10"/></g><g transform="translate(-202,-334) scale(1,1)"><path fill="none" stroke="#000000" d="M 271.035888671875 432.36 L 271.035888671875 449.64" stroke-miterlimit="10"/></g><g transform="translate(-202,-334) scale(1,1)"><path fill="none" stroke="#000000" d="M 261.84607049005683 438.84 L 280.22570685369317 438.84" stroke-miterlimit="10"/></g><g transform="translate(-202,-334) scale(1,1)"><path fill="none" stroke="#000000" d="M 271.035888671875 449.64 L 258.27225230823865 467" stroke-miterlimit="10"/></g><g transform="translate(-202,-334) scale(1,1)"><path fill="none" stroke="#000000" d="M 271.035888671875 449.64 L 283.79952503551135 467" stroke-miterlimit="10"/></g><g transform="translate(-202,-334) scale(1,1)"><g><path fill="none" stroke="none"/><text fill="#000000" stroke="none" font-family="Arial" font-size="13px" font-style="normal" font-weight="bold" text-decoration="none" x="220.089599609375" y="487.5">Account Manager</text></g></g><g transform="translate(-202,-334) scale(1,1)"><g><path fill="none" stroke="none"/><text fill="#000000" stroke="none" font-family="Arial" font-size="13px" font-style="normal" font-weight="normal" text-decoration="none" x="234.197265625" y="502.5">(from Model)</text></g></g><g transform="translate(-202,-334) scale(1,1)"><path fill="none" stroke="#000000" d="M 331 447 L 599 386" stroke-miterlimit="10"/></g><g transform="translate(-202,-334) scale(1,1)"><path fill="none" stroke="#000000" d="M 590.0250106285372 392.35999730991523 L 599 386 L 588.1565269281922 384.1509213805307" stroke-miterlimit="10"/></g><g transform="translate(-202,-334) scale(1,1)"><path fill="none" stroke="#000000" d="M 331 465 L 647 484" stroke-miterlimit="10"/></g><g transform="translate(-202,-334) scale(1,1)"><path fill="none" stroke="#000000" d="M 636.6029979231772 487.591983827155 L 647 484 L 637.1082932053743 479.1881254495617" stroke-miterlimit="10"/></g><g transform="translate(-202,-334) scale(1,1)"><path fill="none" stroke="#000000" d="M 331 476 L 655 554" stroke-miterlimit="10"/></g><g transform="translate(-202,-334) scale(1,1)"><path fill="none" stroke="#000000" d="M 644.1343534973234 555.7139796028173 L 655 554 L 646.104861076014 547.528794275949" stroke-miterlimit="10"/></g><g transform="translate(-202,-334) scale(1,1)"><path fill="none" stroke="#000000" d="M 331 489 L 650 639" stroke-miterlimit="10"/></g><g transform="translate(-202,-334) scale(1,1)"><path fill="none" stroke="#000000" d="M 639.0120654992647 638.4849316476908 L 650 639 L 642.5945653279889 630.866148678604" stroke-miterlimit="10"/></g><g transform="translate(-202,-334) scale(1,1)"><path fill="none" stroke="#000000" d="M 326 509 L 573 727" stroke-miterlimit="10"/></g><g transform="translate(-202,-334) scale(1,1)"><path fill="none" stroke="#000000" d="M 562.5950113703259 723.4312170679135 L 573 727 L 568.1660725936497 717.1190513699273" stroke-miterlimit="10"/></g></g></svg>