<svg version="1.1" xmlns="http://www.w3.org/2000/svg" xmlns:xlink="http://www.w3.org/1999/xlink" width="1099" height="792"><defs/><g><g transform="translate(-62,-70) scale(1,1)"><path fill="#C0C0C0" stroke="none" d="M 319 113 C 319 98.6405952 359.7420832 87 410 87 C 460.2579168 87 501 98.6405952 501 113 C 501 127.3594048 460.2579168 139 410 139 C 359.7420832 139 319 127.3594048 319 113 Z" opacity="0.2"/></g><g transform="translate(-62,-70) scale(1,1)"><path fill="#ffffff" stroke="none" d="M 312 106 C 312 91.6405952 352.7420832 80 403 80 C 453.2579168 80 494 91.6405952 494 106 C 494 120.3594048 453.2579168 132 403 132 C 352.7420832 132 312 120.3594048 312 106 Z"/></g><g transform="translate(-62,-70) scale(1,1)"><path fill="none" stroke="#000000" d="M 312 106 C 312 91.6405952 352.7420832 80 403 80 C 453.2579168 80 494 91.6405952 494 106 C 494 120.3594048 453.2579168 132 403 132 C 352.7420832 132 312 120.3594048 312 106 Z" stroke-miterlimit="10"/></g><g transform="translate(-62,-70) scale(1,1)"><g><path fill="none" stroke="none"/><text fill="#000000" stroke="none" font-family="Arial" font-size="13px" font-style="normal" font-weight="bold" text-decoration="none" x="352.044189453125" y="106.5">generate revenue</text><text fill="#000000" stroke="none" font-family="Arial" font-size="13px" font-style="normal" font-weight="bold" text-decoration="none" x="380.234130859375" y="119.5">account</text></g></g><g transform="translate(-62,-70) scale(1,1)"><path fill="#C0C0C0" stroke="none" d="M 543 225 C 543 210.6405952 574.340064 199 613 199 C 651.659936 199 683 210.6405952 683 225 C 683 239.3594048 651.659936 251 613 251 C 574.340064 251 543 239.3594048 543 225 Z" opacity="0.2"/></g><g transform="translate(-62,-70) scale(1,1)"><path fill="#ffffff" stroke="none" d="M 536 218 C 536 203.6405952 567.340064 192 606 192 C 644.659936 192 676 203.6405952 676 218 C 676 232.3594048 644.659936 244 606 244 C 567.340064 244 536 232.3594048 536 218 Z"/></g><g transform="translate(-62,-70) scale(1,1)"><path fill="none" stroke="#000000" d="M 536 218 C 536 203.6405952 567.340064 192 606 192 C 644.659936 192 676 203.6405952 676 218 C 676 232.3594048 644.659936 244 606 244 C 567.340064 244 536 232.3594048 536 218 Z" stroke-miterlimit="10"/></g><g transform="translate(-62,-70) scale(1,1)"><g><path fill="none" stroke="none"/><text fill="#000000" stroke="none" font-family="Arial" font-size="13px" font-style="normal" font-weight="bold" text-decoration="none" x="580.339599609375" y="218.5">generate</text><text fill="#000000" stroke="none" font-family="Arial" font-size="13px" font-style="normal" font-weight="bold" text-decoration="none" x="565.52734375" y="231.5">account sheet</text></g></g><g transform="translate(-62,-70) scale(1,1)"><path fill="#C0C0C0" stroke="none" d="M 575 297 C 575 282.6405952 598.0573328 271 626.5 271 C 654.9426672 271 678 282.6405952 678 297 C 678 311.3594048 654.9426672 323 626.5 323 C 598.0573328 323 575 311.3594048 575 297 Z" opacity="0.2"/></g><g transform="translate(-62,-70) scale(1,1)"><path fill="#ffffff" stroke="none" d="M 568 290 C 568 275.6405952 591.0573328 264 619.5 264 C 647.9426672 264 671 275.6405952 671 290 C 671 304.3594048 647.9426672 316 619.5 316 C 591.0573328 316 568 304.3594048 568 290 Z"/></g><g transform="translate(-62,-70) scale(1,1)"><path fill="none" stroke="#000000" d="M 568 290 C 568 275.6405952 591.0573328 264 619.5 264 C 647.9426672 264 671 275.6405952 671 290 C 671 304.3594048 647.9426672 316 619.5 316 C 591.0573328 316 568 304.3594048 568 290 Z" stroke-miterlimit="10"/></g><g transform="translate(-62,-70) scale(1,1)"><g><path fill="none" stroke="none"/><text fill="#000000" stroke="none" font-family="Arial" font-size="13px" font-style="normal" font-weight="bold" text-decoration="none" x="601.4345703125" y="290.5">create</text><text fill="#000000" stroke="none" font-family="Arial" font-size="13px" font-style="normal" font-weight="bold" text-decoration="none" x="601.431396484375" y="303.5">ledger</text></g></g><g transform="translate(-62,-70) scale(1,1)"><path fill="#C0C0C0" stroke="none" d="M 575 394.5 C 575 374.8938896 610.1456432 359 653.5 359 C 696.8543568 359 732 374.8938896 732 394.5 C 732 414.1061104 696.8543568 430 653.5 430 C 610.1456432 430 575 414.1061104 575 394.5 Z" opacity="0.2"/></g><g transform="translate(-62,-70) scale(1,1)"><path fill="#ffffff" stroke="none" d="M 568 387.5 C 568 367.8938896 603.1456432 352 646.5 352 C 689.8543568 352 725 367.8938896 725 387.5 C 725 407.1061104 689.8543568 423 646.5 423 C 603.1456432 423 568 407.1061104 568 387.5 Z"/></g><g transform="translate(-62,-70) scale(1,1)"><path fill="none" stroke="#000000" d="M 568 387.5 C 568 367.8938896 603.1456432 352 646.5 352 C 689.8543568 352 725 367.8938896 725 387.5 C 725 407.1061104 689.8543568 423 646.5 423 C 603.1456432 423 568 407.1061104 568 387.5 Z" stroke-miterlimit="10"/></g><g transform="translate(-62,-70) scale(1,1)"><g><path fill="none" stroke="none"/><text fill="#000000" stroke="none" font-family="Arial" font-size="13px" font-style="normal" font-weight="bold" text-decoration="none" x="620.839599609375" y="381.5">generate</text><text fill="#000000" stroke="none" font-family="Arial" font-size="13px" font-style="normal" font-weight="bold" text-decoration="none" x="623.734130859375" y="394.5">account</text><text fill="#000000" stroke="none" font-family="Arial" font-size="13px" font-style="normal" font-weight="bold" text-decoration="none" x="619.7763671875" y="407.5">summary</text></g></g><g transform="translate(-62,-70) scale(1,1)"><path fill="#C0C0C0" stroke="none" d="M 663 465 C 663 450.6405952 698.3695008 439 742 439 C 785.6304992 439 821 450.6405952 821 465 C 821 479.3594048 785.6304992 491 742 491 C 698.3695008 491 663 479.3594048 663 465 Z" opacity="0.2"/></g><g transform="translate(-62,-70) scale(1,1)"><path fill="#ffffff" stroke="none" d="M 656 458 C 656 443.6405952 691.3695008 432 735 432 C 778.6304992 432 814 443.6405952 814 458 C 814 472.3594048 778.6304992 484 735 484 C 691.3695008 484 656 472.3594048 656 458 Z"/></g><g transform="translate(-62,-70) scale(1,1)"><path fill="none" stroke="#000000" d="M 656 458 C 656 443.6405952 691.3695008 432 735 432 C 778.6304992 432 814 443.6405952 814 458 C 814 472.3594048 778.6304992 484 735 484 C 691.3695008 484 656 472.3594048 656 458 Z" stroke-miterlimit="10"/></g><g transform="translate(-62,-70) scale(1,1)"><g><path fill="none" stroke="none"/><text fill="#000000" stroke="none" font-family="Arial" font-size="13px" font-style="normal" font-weight="bold" text-decoration="none" x="709.339599609375" y="458.5">generate</text><text fill="#000000" stroke="none" font-family="Arial" font-size="13px" font-style="normal" font-weight="bold" text-decoration="none" x="714.766845703125" y="471.5">invoice</text></g></g><g transform="translate(-62,-70) scale(1,1)"><path fill="#C0C0C0" stroke="none" d="M 679 561 C 679 546.6405952 728.0248144 535 788.5 535 C 848.9751856 535 898 546.6405952 898 561 C 898 575.3594048 848.9751856 587 788.5 587 C 728.0248144 587 679 575.3594048 679 561 Z" opacity="0.2"/></g><g transform="translate(-62,-70) scale(1,1)"><path fill="#ffffff" stroke="none" d="M 672 554 C 672 539.6405952 721.0248144 528 781.5 528 C 841.9751856 528 891 539.6405952 891 554 C 891 568.3594048 841.9751856 580 781.5 580 C 721.0248144 580 672 568.3594048 672 554 Z"/></g><g transform="translate(-62,-70) scale(1,1)"><path fill="none" stroke="#000000" d="M 672 554 C 672 539.6405952 721.0248144 528 781.5 528 C 841.9751856 528 891 539.6405952 891 554 C 891 568.3594048 841.9751856 580 781.5 580 C 721.0248144 580 672 568.3594048 672 554 Z" stroke-miterlimit="10"/></g><g transform="translate(-62,-70) scale(1,1)"><g><path fill="none" stroke="none"/><text fill="#000000" stroke="none" font-family="Arial" font-size="13px" font-style="normal" font-weight="bold" text-decoration="none" x="726.21826171875" y="554.5">generate profit/loss</text><text fill="#000000" stroke="none" font-family="Arial" font-size="13px" font-style="normal" font-weight="bold" text-decoration="none" x="752.957763671875" y="567.5">statement</text></g></g><g transform="translate(-62,-70) scale(1,1)"><path fill="#C0C0C0" stroke="none" d="M 607 657 C 607 642.6405952 648.1897984 631 699 631 C 749.8102016 631 791 642.6405952 791 657 C 791 671.3594048 749.8102016 683 699 683 C 648.1897984 683 607 671.3594048 607 657 Z" opacity="0.2"/></g><g transform="translate(-62,-70) scale(1,1)"><path fill="#ffffff" stroke="none" d="M 600 650 C 600 635.6405952 641.1897984 624 692 624 C 742.8102016 624 784 635.6405952 784 650 C 784 664.3594048 742.8102016 676 692 676 C 641.1897984 676 600 664.3594048 600 650 Z"/></g><g transform="translate(-62,-70) scale(1,1)"><path fill="none" stroke="#000000" d="M 600 650 C 600 635.6405952 641.1897984 624 692 624 C 742.8102016 624 784 635.6405952 784 650 C 784 664.3594048 742.8102016 676 692 676 C 641.1897984 676 600 664.3594048 600 650 Z" stroke-miterlimit="10"/></g><g transform="translate(-62,-70) scale(1,1)"><g><path fill="none" stroke="none"/><text fill="#000000" stroke="none" font-family="Arial" font-size="13px" font-style="normal" font-weight="bold" text-decoration="none" x="641.7646484375" y="650.5">generate balance</text><text fill="#000000" stroke="none" font-family="Arial" font-size="13px" font-style="normal" font-weight="bold" text-decoration="none" x="676.09912109375" y="663.5">sheet</text></g></g><g transform="translate(-62,-70) scale(1,1)"><path fill="#C0C0C0" stroke="none" d="M 519 753 C 519 738.6405952 570.9349632 727 635 727 C 699.0650368 727 751 738.6405952 751 753 C 751 767.3594048 699.0650368 779 635 779 C 570.9349632 779 519 767.3594048 519 753 Z" opacity="0.2"/></g><g transform="translate(-62,-70) scale(1,1)"><path fill="#ffffff" stroke="none" d="M 512 746 C 512 731.6405952 563.9349632 720 628 720 C 692.0650368 720 744 731.6405952 744 746 C 744 760.3594048 692.0650368 772 628 772 C 563.9349632 772 512 760.3594048 512 746 Z"/></g><g transform="translate(-62,-70) scale(1,1)"><path fill="none" stroke="#000000" d="M 512 746 C 512 731.6405952 563.9349632 720 628 720 C 692.0650368 720 744 731.6405952 744 746 C 744 760.3594048 692.0650368 772 628 772 C 563.9349632 772 512 760.3594048 512 746 Z" stroke-miterlimit="10"/></g><g transform="translate(-62,-70) scale(1,1)"><g><path fill="none" stroke="none"/><text fill="#000000" stroke="none" font-family="Arial" font-size="13px" font-style="normal" font-weight="bold" text-decoration="none" x="564.7646484375" y="746.5">generate statement of</text><text fill="#000000" stroke="none" font-family="Arial" font-size="13px" font-style="normal" font-weight="bold" text-decoration="none" x="600.905029296875" y="759.5">cash flow</text></g></g><g transform="translate(-62,-70) scale(1,1)"><path fill="#C0C0C0" stroke="none" d="M 407 833 C 407 818.6405952 448.1897984 807 499 807 C 549.8102016 807 591 818.6405952 591 833 C 591 847.3594048 549.8102016 859 499 859 C 448.1897984 859 407 847.3594048 407 833 Z" opacity="0.2"/></g><g transform="translate(-62,-70) scale(1,1)"><path fill="#ffffff" stroke="none" d="M 400 826 C 400 811.6405952 441.1897984 800 492 800 C 542.8102016 800 584 811.6405952 584 826 C 584 840.3594048 542.8102016 852 492 852 C 441.1897984 852 400 840.3594048 400 826 Z"/></g><g transform="translate(-62,-70) scale(1,1)"><path fill="none" stroke="#000000" d="M 400 826 C 400 811.6405952 441.1897984 800 492 800 C 542.8102016 800 584 811.6405952 584 826 C 584 840.3594048 542.8102016 852 492 852 C 441.1897984 852 400 840.3594048 400 826 Z" stroke-miterlimit="10"/></g><g transform="translate(-62,-70) scale(1,1)"><g><path fill="none" stroke="none"/><text fill="#000000" stroke="none" font-family="Arial" font-size="13px" font-style="normal" font-weight="bold" text-decoration="none" x="443.580078125" y="826.5">generate income</text><text fill="#000000" stroke="none" font-family="Arial" font-size="13px" font-style="normal" font-weight="bold" text-decoration="none" x="463.457763671875" y="839.5">statement</text></g></g><g transform="translate(-62,-70) scale(1,1)"><path fill="#ffffff" stroke="none" d="M 330.35661594460225 372.68 C 330.35661594460225 367.886167936 334.24245826954774 364 339.035888671875 364 C 343.82931907420226 364 347.71516139914775 367.886167936 347.71516139914775 372.68 C 347.71516139914775 377.473832064 343.82931907420226 381.36 339.035888671875 381.36 C 334.24245826954774 381.36 330.35661594460225 377.473832064 330.35661594460225 372.68 Z"/></g><g transform="translate(-62,-70) scale(1,1)"><path fill="none" stroke="#000000" d="M 330.35661594460225 372.68 C 330.35661594460225 367.886167936 334.24245826954774 364 339.035888671875 364 C 343.82931907420226 364 347.71516139914775 367.886167936 347.71516139914775 372.68 C 347.71516139914775 377.473832064 343.82931907420226 381.36 339.035888671875 381.36 C 334.24245826954774 381.36 330.35661594460225 377.473832064 330.35661594460225 372.68 Z" stroke-miterlimit="10"/></g><g transform="translate(-62,-70) scale(1,1)"><path fill="none" stroke="#000000" d="M 339.035888671875 381.36 L 339.035888671875 398.64" stroke-miterlimit="10"/></g><g transform="translate(-62,-70) scale(1,1)"><path fill="none" stroke="#000000" d="M 329.84607049005683 387.84 L 348.22570685369317 387.84" stroke-miterlimit="10"/></g><g transform="translate(-62,-70) scale(1,1)"><path fill="none" stroke="#000000" d="M 339.035888671875 398.64 L 326.27225230823865 416" stroke-miterlimit="10"/></g><g transform="translate(-62,-70) scale(1,1)"><path fill="none" stroke="#000000" d="M 339.035888671875 398.64 L 351.79952503551135 416" stroke-miterlimit="10"/></g><g transform="translate(-62,-70) scale(1,1)"><g><path fill="none" stroke="none"/><text fill="#000000" stroke="none" font-family="Arial" font-size="13px" font-style="normal" font-weight="bold" text-decoration="none" x="288.089599609375" y="436.5">Account Manager</text></g></g><g transform="translate(-62,-70) scale(1,1)"><g><path fill="none" stroke="none"/><text fill="#000000" stroke="none" font-family="Arial" font-size="13px" font-style="normal" font-weight="normal" text-decoration="none" x="302.197265625" y="451.5">(from Model)</text></g></g><g transform="translate(-62,-70) scale(1,1)"><path fill="none" stroke="#000000" d="M 349 362 L 397 133" stroke-miterlimit="10"/></g><g transform="translate(-62,-70) scale(1,1)"><path fill="none" stroke="#000000" d="M 399.0351239721144 143.81010038890136 L 397 133 L 390.7951546709379 142.08294525153687" stroke-miterlimit="10"/></g><g transform="translate(-62,-70) scale(1,1)"><path fill="none" stroke="#000000" d="M 399 367 L 568 245" stroke-miterlimit="10"/></g><g transform="translate(-62,-70) scale(1,1)"><path fill="none" stroke="#000000" d="M 562.2239405458045 254.36147088771838 L 568 245 L 557.2961496448156 247.53526873798782" stroke-miterlimit="10"/></g><g transform="translate(-62,-70) scale(1,1)"><path fill="none" stroke="#000000" d="M 399 384 L 567 312" stroke-miterlimit="10"/></g><g transform="translate(-62,-70) scale(1,1)"><path fill="none" stroke="#000000" d="M 559.3172381947317 319.8724310758183 L 567 312 L 556.0008176311189 312.13411642738856" stroke-miterlimit="10"/></g><g transform="translate(-62,-70) scale(1,1)"><path fill="none" stroke="#000000" d="M 399 405 L 567 393" stroke-miterlimit="10"/></g><g transform="translate(-62,-70) scale(1,1)"><path fill="none" stroke="#000000" d="M 557.1630672716996 397.9228807114221 L 567 393 L 556.5632358277238 389.5252404957619" stroke-miterlimit="10"/></g><g transform="translate(-62,-70) scale(1,1)"><path fill="none" stroke="#000000" d="M 399 417 L 655 448" stroke-miterlimit="10"/></g><g transform="translate(-62,-70) scale(1,1)"><path fill="none" stroke="#000000" d="M 644.4049772454968 450.9572779428991 L 655 448 L 645.4170762761876 442.59929885074234" stroke-miterlimit="10"/></g><g transform="translate(-62,-70) scale(1,1)"><path fill="none" stroke="#000000" d="M 399 430 L 698 527" stroke-miterlimit="10"/></g><g transform="translate(-62,-70) scale(1,1)"><path fill="none" stroke="#000000" d="M 687.0343047376907 527.8680595683298 L 698 527 L 689.6322717123561 519.8598933268358" stroke-miterlimit="10"/></g><g transform="translate(-62,-70) scale(1,1)"><path fill="none" stroke="#000000" d="M 399 451 L 652 623" stroke-miterlimit="10"/></g><g transform="translate(-62,-70) scale(1,1)"><path fill="none" stroke="#000000" d="M 641.2289193740828 620.7675524306286 L 652 623 L 645.9622746636529 613.805117033761" stroke-miterlimit="10"/></g><g transform="translate(-62,-70) scale(1,1)"><path fill="none" stroke="#000000" d="M 380 458 L 605 719" stroke-miterlimit="10"/></g><g transform="translate(-62,-70) scale(1,1)"><path fill="none" stroke="#000000" d="M 595.1760562373071 714.0512497590355 L 605 719 L 601.5527176011891 708.5541278936199" stroke-miterlimit="10"/></g><g transform="translate(-62,-70) scale(1,1)"><path fill="none" stroke="#000000" d="M 357 458 L 482 799" stroke-miterlimit="10"/></g><g transform="translate(-62,-70) scale(1,1)"><path fill="none" stroke="#000000" d="M 474.54993275330685 790.907009327835 L 482 799 L 482.4546155139348 788.0093983452001" stroke-miterlimit="10"/></g><g transform="translate(-62,-70) scale(1,1)"><path fill="#C0C0C0" stroke="none" d="M 463 168 C 463 158.6111584 517.6212544 151 585 151 C 652.3787456 151 707 158.6111584 707 168 C 707 177.3888416 652.3787456 185 585 185 C 517.6212544 185 463 177.3888416 463 168 Z" opacity="0.2"/></g><g transform="translate(-62,-70) scale(1,1)"><path fill="#ffffff" stroke="none" d="M 456 161 C 456 151.6111584 510.6212544 144 578 144 C 645.3787456 144 700 151.6111584 700 161 C 700 170.3888416 645.3787456 178 578 178 C 510.6212544 178 456 170.3888416 456 161 Z"/></g><g transform="translate(-62,-70) scale(1,1)"><path fill="none" stroke="#000000" d="M 456 161 C 456 151.6111584 510.6212544 144 578 144 C 645.3787456 144 700 151.6111584 700 161 C 700 170.3888416 645.3787456 178 578 178 C 510.6212544 178 456 170.3888416 456 161 Z" stroke-miterlimit="10"/></g><g transform="translate(-62,-70) scale(1,1)"><g><path fill="none" stroke="none"/><text fill="#000000" stroke="none" font-family="Arial" font-size="13px" font-style="normal" font-weight="bold" text-decoration="none" x="501.386962890625" y="168">generate expense account</text></g></g><g transform="translate(-62,-70) scale(1,1)"><path fill="none" stroke="#000000" d="M 373 362 L 464 232 L 549 179" stroke-miterlimit="10"/></g><g transform="translate(-62,-70) scale(1,1)"><path fill="none" stroke="#000000" d="M 542.6036353745037 187.94910719444684 L 549 179 L 538.1491128156111 180.80506158112854" stroke-miterlimit="10"/></g><g transform="translate(-62,-70) scale(1,1)"><path fill="#C0C0C0" stroke="none" d="M 943 672 C 943 662.6111584 979.936504 655 1025.5 655 C 1071.063496 655 1108 662.6111584 1108 672 C 1108 681.3888416 1071.063496 689 1025.5 689 C 979.936504 689 943 681.3888416 943 672 Z" opacity="0.2"/></g><g transform="translate(-62,-70) scale(1,1)"><path fill="#ffff91" stroke="none" d="M 936 665 C 936 655.6111584 972.936504 648 1018.5 648 C 1064.063496 648 1101 655.6111584 1101 665 C 1101 674.3888416 1064.063496 682 1018.5 682 C 972.936504 682 936 674.3888416 936 665 Z"/></g><g transform="translate(-62,-70) scale(1,1)"><path fill="none" stroke="#000000" d="M 936 665 C 936 655.6111584 972.936504 648 1018.5 648 C 1064.063496 648 1101 655.6111584 1101 665 C 1101 674.3888416 1064.063496 682 1018.5 682 C 972.936504 682 936 674.3888416 936 665 Z" stroke-miterlimit="10"/></g><g transform="translate(-62,-70) scale(1,1)"><g><path fill="none" stroke="none"/><text fill="#000000" stroke="none" font-family="Arial" font-size="13px" font-style="normal" font-weight="bold" text-decoration="none" x="968.27099609375" y="672">calculate balance</text></g></g><g transform="translate(-62,-70) scale(1,1)"><path fill="none" stroke="#000000" d="M 785 654 L 935 661" stroke-miterlimit="10" stroke-dasharray="3"/></g><g transform="translate(-62,-70) scale(1,1)"><path fill="none" stroke="#000000" d="M 924.6521425195149 664.7311989445174 L 935 661 L 925.0446037291726 656.3213158804214" stroke-miterlimit="10"/></g><g transform="translate(-62,-70) scale(1,1)"><g><path fill="none" stroke="none"/><text fill="#000000" stroke="none" font-family="Arial" font-size="13px" font-style="normal" font-weight="normal" text-decoration="none" x="833.5" y="644.5">«include»</text></g></g><g transform="translate(-62,-70) scale(1,1)"><path fill="#C0C0C0" stroke="none" d="M 175 210.5 C 175 190.8938896 205.4446336 175 243 175 C 280.5553664 175 311 190.8938896 311 210.5 C 311 230.1061104 280.5553664 246 243 246 C 205.4446336 246 175 230.1061104 175 210.5 Z" opacity="0.2"/></g><g transform="translate(-62,-70) scale(1,1)"><path fill="#ffffff" stroke="none" d="M 168 203.5 C 168 183.8938896 198.4446336 168 236 168 C 273.5553664 168 304 183.8938896 304 203.5 C 304 223.1061104 273.5553664 239 236 239 C 198.4446336 239 168 223.1061104 168 203.5 Z"/></g><g transform="translate(-62,-70) scale(1,1)"><path fill="none" stroke="#000000" d="M 168 203.5 C 168 183.8938896 198.4446336 168 236 168 C 273.5553664 168 304 183.8938896 304 203.5 C 304 223.1061104 273.5553664 239 236 239 C 198.4446336 239 168 223.1061104 168 203.5 Z" stroke-miterlimit="10"/></g><g transform="translate(-62,-70) scale(1,1)"><g><path fill="none" stroke="none"/><text fill="#000000" stroke="none" font-family="Arial" font-size="13px" font-style="normal" font-weight="bold" text-decoration="none" x="210.339599609375" y="197.5">generate</text><text fill="#000000" stroke="none" font-family="Arial" font-size="13px" font-style="normal" font-weight="bold" text-decoration="none" x="220.464111328125" y="210.5">asset</text><text fill="#000000" stroke="none" font-family="Arial" font-size="13px" font-style="normal" font-weight="bold" text-decoration="none" x="213.234130859375" y="223.5">account</text></g></g><g transform="translate(-62,-70) scale(1,1)"><path fill="#C0C0C0" stroke="none" d="M 79 322.5 C 79 302.8938896 111.9070672 287 152.5 287 C 193.0929328 287 226 302.8938896 226 322.5 C 226 342.1061104 193.0929328 358 152.5 358 C 111.9070672 358 79 342.1061104 79 322.5 Z" opacity="0.2"/></g><g transform="translate(-62,-70) scale(1,1)"><path fill="#ffffff" stroke="none" d="M 72 315.5 C 72 295.8938896 104.9070672 280 145.5 280 C 186.0929328 280 219 295.8938896 219 315.5 C 219 335.1061104 186.0929328 351 145.5 351 C 104.9070672 351 72 335.1061104 72 315.5 Z"/></g><g transform="translate(-62,-70) scale(1,1)"><path fill="none" stroke="#000000" d="M 72 315.5 C 72 295.8938896 104.9070672 280 145.5 280 C 186.0929328 280 219 295.8938896 219 315.5 C 219 335.1061104 186.0929328 351 145.5 351 C 104.9070672 351 72 335.1061104 72 315.5 Z" stroke-miterlimit="10"/></g><g transform="translate(-62,-70) scale(1,1)"><g><path fill="none" stroke="none"/><text fill="#000000" stroke="none" font-family="Arial" font-size="13px" font-style="normal" font-weight="bold" text-decoration="none" x="119.839599609375" y="309.5">generate</text><text fill="#000000" stroke="none" font-family="Arial" font-size="13px" font-style="normal" font-weight="bold" text-decoration="none" x="125.99365234375" y="322.5">liability</text><text fill="#000000" stroke="none" font-family="Arial" font-size="13px" font-style="normal" font-weight="bold" text-decoration="none" x="122.734130859375" y="335.5">account</text></g></g><g transform="translate(-62,-70) scale(1,1)"><path fill="none" stroke="#000000" d="M 315 362 L 254 240" stroke-miterlimit="10"/></g><g transform="translate(-62,-70) scale(1,1)"><path fill="none" stroke="#000000" d="M 262.3099935049528 247.20721915496142 L 254 240 L 254.77977922099748 250.97232629693906" stroke-miterlimit="10"/></g><g transform="translate(-62,-70) scale(1,1)"><path fill="none" stroke="#000000" d="M 279 381 L 220 352" stroke-miterlimit="10"/></g><g transform="translate(-62,-70) scale(1,1)"><path fill="none" stroke="#000000" d="M 230.97737692031475 352.70512123024423 L 220 352 L 227.26358165653096 360.2607736634596" stroke-miterlimit="10"/></g><g transform="translate(-62,-70) scale(1,1)"><g><path fill="none" stroke="none"/><text fill="#000000" stroke="none" font-family="Arial" font-size="13px" font-style="normal" font-weight="normal" text-decoration="none" x="893" y="106">have .mdj sent to Pearce through canvas</text></g></g><g transform="translate(-62,-70) scale(1,1)"><g><path fill="none" stroke="none"/><text fill="#000000" stroke="none" font-family="Arial" font-size="13px" font-style="normal" font-weight="normal" text-decoration="none" x="893" y="121">URL of webpage through canvas and sent</text><text fill="#000000" stroke="none" font-family="Arial" font-size="13px" font-style="normal" font-weight="normal" text-decoration="none" x="893" y="134">to him</text></g></g><g transform="translate(-62,-70) scale(1,1)"><g><path fill="none" stroke="none"/><text fill="#000000" stroke="none" font-family="Arial" font-size="13px" font-style="normal" font-weight="normal" text-decoration="none" x="893" y="149">document of references visibal to everyone</text></g></g><g transform="translate(-62,-70) scale(1,1)"><g><path fill="none" stroke="none"/><text fill="#000000" stroke="none" font-family="Arial" font-size="13px" font-style="normal" font-weight="normal" text-decoration="none" x="893" y="164">share to Gilbert</text></g></g></g></svg>