<svg version="1.1" xmlns="http://www.w3.org/2000/svg" xmlns:xlink="http://www.w3.org/1999/xlink" width="1060" height="915"><defs/><g><g transform="translate(-46,-14) scale(1,1)"><path fill="#ffffff" stroke="none" d="M 158.27434055397728 49.68 C 158.27434055397728 44.886167936 162.16018287892274 41 166.95361328125 41 C 171.74704368357726 41 175.63288600852272 44.886167936 175.63288600852272 49.68 C 175.63288600852272 54.473832064 171.74704368357726 58.36 166.95361328125 58.36 C 162.16018287892274 58.36 158.27434055397728 54.473832064 158.27434055397728 49.68 Z"/></g><g transform="translate(-46,-14) scale(1,1)"><path fill="none" stroke="#000000" d="M 158.27434055397728 49.68 C 158.27434055397728 44.886167936 162.16018287892274 41 166.95361328125 41 C 171.74704368357726 41 175.63288600852272 44.886167936 175.63288600852272 49.68 C 175.63288600852272 54.473832064 171.74704368357726 58.36 166.95361328125 58.36 C 162.16018287892274 58.36 158.27434055397728 54.473832064 158.27434055397728 49.68 Z" stroke-miterlimit="10"/></g><g transform="translate(-46,-14) scale(1,1)"><path fill="none" stroke="#000000" d="M 166.95361328125 58.36 L 166.95361328125 75.64" stroke-miterlimit="10"/></g><g transform="translate(-46,-14) scale(1,1)"><path fill="none" stroke="#000000" d="M 157.76379509943183 64.84 L 176.14343146306817 64.84" stroke-miterlimit="10"/></g><g transform="translate(-46,-14) scale(1,1)"><path fill="none" stroke="#000000" d="M 166.95361328125 75.64 L 154.18997691761365 93" stroke-miterlimit="10"/></g><g transform="translate(-46,-14) scale(1,1)"><path fill="none" stroke="#000000" d="M 166.95361328125 75.64 L 179.71724964488635 93" stroke-miterlimit="10"/></g><g transform="translate(-46,-14) scale(1,1)"><g><path fill="none" stroke="none"/><text fill="#000000" stroke="none" font-family="Arial" font-size="13px" font-style="normal" font-weight="bold" text-decoration="none" x="105.168701171875" y="113.5">Authorized Employee</text></g></g><g transform="translate(-46,-14) scale(1,1)"><path fill="#ffffff" stroke="none" d="M 146.35661594460228 209.68 C 146.35661594460228 204.886167936 150.24245826954774 201 155.035888671875 201 C 159.82931907420226 201 163.71516139914772 204.886167936 163.71516139914772 209.68 C 163.71516139914772 214.47383206400002 159.82931907420226 218.36 155.035888671875 218.36 C 150.24245826954774 218.36 146.35661594460228 214.47383206400002 146.35661594460228 209.68 Z"/></g><g transform="translate(-46,-14) scale(1,1)"><path fill="none" stroke="#000000" d="M 146.35661594460228 209.68 C 146.35661594460228 204.886167936 150.24245826954774 201 155.035888671875 201 C 159.82931907420226 201 163.71516139914772 204.886167936 163.71516139914772 209.68 C 163.71516139914772 214.47383206400002 159.82931907420226 218.36 155.035888671875 218.36 C 150.24245826954774 218.36 146.35661594460228 214.47383206400002 146.35661594460228 209.68 Z" stroke-miterlimit="10"/></g><g transform="translate(-46,-14) scale(1,1)"><path fill="none" stroke="#000000" d="M 155.035888671875 218.36 L 155.035888671875 235.64" stroke-miterlimit="10"/></g><g transform="translate(-46,-14) scale(1,1)"><path fill="none" stroke="#000000" d="M 145.84607049005683 224.84 L 164.22570685369317 224.84" stroke-miterlimit="10"/></g><g transform="translate(-46,-14) scale(1,1)"><path fill="none" stroke="#000000" d="M 155.035888671875 235.64 L 142.27225230823865 253" stroke-miterlimit="10"/></g><g transform="translate(-46,-14) scale(1,1)"><path fill="none" stroke="#000000" d="M 155.035888671875 235.64 L 167.79952503551135 253" stroke-miterlimit="10"/></g><g transform="translate(-46,-14) scale(1,1)"><g><path fill="none" stroke="none"/><text fill="#000000" stroke="none" font-family="Arial" font-size="13px" font-style="normal" font-weight="bold" text-decoration="none" x="104.089599609375" y="273.5">Account Manager</text></g></g><g transform="translate(-46,-14) scale(1,1)"><path fill="#ffffff" stroke="none" d="M 130.52751438210228 369.68 C 130.52751438210228 364.886167936 134.41335670704774 361 139.206787109375 361 C 144.00021751170226 361 147.88605983664772 364.886167936 147.88605983664772 369.68 C 147.88605983664772 374.473832064 144.00021751170226 378.36 139.206787109375 378.36 C 134.41335670704774 378.36 130.52751438210228 374.473832064 130.52751438210228 369.68 Z"/></g><g transform="translate(-46,-14) scale(1,1)"><path fill="none" stroke="#000000" d="M 130.52751438210228 369.68 C 130.52751438210228 364.886167936 134.41335670704774 361 139.206787109375 361 C 144.00021751170226 361 147.88605983664772 364.886167936 147.88605983664772 369.68 C 147.88605983664772 374.473832064 144.00021751170226 378.36 139.206787109375 378.36 C 134.41335670704774 378.36 130.52751438210228 374.473832064 130.52751438210228 369.68 Z" stroke-miterlimit="10"/></g><g transform="translate(-46,-14) scale(1,1)"><path fill="none" stroke="#000000" d="M 139.206787109375 378.36 L 139.206787109375 395.64" stroke-miterlimit="10"/></g><g transform="translate(-46,-14) scale(1,1)"><path fill="none" stroke="#000000" d="M 130.01696892755683 384.84 L 148.39660529119317 384.84" stroke-miterlimit="10"/></g><g transform="translate(-46,-14) scale(1,1)"><path fill="none" stroke="#000000" d="M 139.206787109375 395.64 L 126.44315074573865 413" stroke-miterlimit="10"/></g><g transform="translate(-46,-14) scale(1,1)"><path fill="none" stroke="#000000" d="M 139.206787109375 395.64 L 151.97042347301135 413" stroke-miterlimit="10"/></g><g transform="translate(-46,-14) scale(1,1)"><g><path fill="none" stroke="none"/><text fill="#000000" stroke="none" font-family="Arial" font-size="13px" font-style="normal" font-weight="bold" text-decoration="none" x="110.302734375" y="433.5">Employee</text></g></g><g transform="translate(-46,-14) scale(1,1)"><path fill="#ffffff" stroke="none" d="M 156.67936985085228 713.6800000000001 C 156.67936985085228 708.8861679360001 160.56521217579774 705 165.358642578125 705 C 170.15207298045226 705 174.03791530539772 708.8861679360001 174.03791530539772 713.6800000000001 C 174.03791530539772 718.473832064 170.15207298045226 722.36 165.358642578125 722.36 C 160.56521217579774 722.36 156.67936985085228 718.473832064 156.67936985085228 713.6800000000001 Z"/></g><g transform="translate(-46,-14) scale(1,1)"><path fill="none" stroke="#000000" d="M 156.67936985085228 713.6800000000001 C 156.67936985085228 708.8861679360001 160.56521217579774 705 165.358642578125 705 C 170.15207298045226 705 174.03791530539772 708.8861679360001 174.03791530539772 713.6800000000001 C 174.03791530539772 718.473832064 170.15207298045226 722.36 165.358642578125 722.36 C 160.56521217579774 722.36 156.67936985085228 718.473832064 156.67936985085228 713.6800000000001 Z" stroke-miterlimit="10"/></g><g transform="translate(-46,-14) scale(1,1)"><path fill="none" stroke="#000000" d="M 165.358642578125 722.36 L 165.358642578125 739.64" stroke-miterlimit="10"/></g><g transform="translate(-46,-14) scale(1,1)"><path fill="none" stroke="#000000" d="M 156.16882439630683 728.84 L 174.54846075994317 728.84" stroke-miterlimit="10"/></g><g transform="translate(-46,-14) scale(1,1)"><path fill="none" stroke="#000000" d="M 165.358642578125 739.64 L 152.59500621448865 757" stroke-miterlimit="10"/></g><g transform="translate(-46,-14) scale(1,1)"><path fill="none" stroke="#000000" d="M 165.358642578125 739.64 L 178.12227894176135 757" stroke-miterlimit="10"/></g><g transform="translate(-46,-14) scale(1,1)"><g><path fill="none" stroke="none"/><text fill="#000000" stroke="none" font-family="Arial" font-size="13px" font-style="normal" font-weight="bold" text-decoration="none" x="135.740478515625" y="777.5">Fulfillment</text></g></g><g transform="translate(-46,-14) scale(1,1)"><path fill="#ffffff" stroke="none" d="M 144.40935031960228 849.6800000000001 C 144.40935031960228 844.8861679360001 148.29519264454774 841 153.088623046875 841 C 157.88205344920226 841 161.76789577414772 844.8861679360001 161.76789577414772 849.6800000000001 C 161.76789577414772 854.473832064 157.88205344920226 858.36 153.088623046875 858.36 C 148.29519264454774 858.36 144.40935031960228 854.473832064 144.40935031960228 849.6800000000001 Z"/></g><g transform="translate(-46,-14) scale(1,1)"><path fill="none" stroke="#000000" d="M 144.40935031960228 849.6800000000001 C 144.40935031960228 844.8861679360001 148.29519264454774 841 153.088623046875 841 C 157.88205344920226 841 161.76789577414772 844.8861679360001 161.76789577414772 849.6800000000001 C 161.76789577414772 854.473832064 157.88205344920226 858.36 153.088623046875 858.36 C 148.29519264454774 858.36 144.40935031960228 854.473832064 144.40935031960228 849.6800000000001 Z" stroke-miterlimit="10"/></g><g transform="translate(-46,-14) scale(1,1)"><path fill="none" stroke="#000000" d="M 153.088623046875 858.36 L 153.088623046875 875.64" stroke-miterlimit="10"/></g><g transform="translate(-46,-14) scale(1,1)"><path fill="none" stroke="#000000" d="M 143.89880486505683 864.84 L 162.27844122869317 864.84" stroke-miterlimit="10"/></g><g transform="translate(-46,-14) scale(1,1)"><path fill="none" stroke="#000000" d="M 153.088623046875 875.64 L 140.32498668323865 893" stroke-miterlimit="10"/></g><g transform="translate(-46,-14) scale(1,1)"><path fill="none" stroke="#000000" d="M 153.088623046875 875.64 L 165.85225941051135 893" stroke-miterlimit="10"/></g><g transform="translate(-46,-14) scale(1,1)"><g><path fill="none" stroke="none"/><text fill="#000000" stroke="none" font-family="Arial" font-size="13px" font-style="normal" font-weight="bold" text-decoration="none" x="135.385009765625" y="913.5">Public</text></g></g><g transform="translate(-46,-14) scale(1,1)"><path fill="#C0C0C0" stroke="none" d="M 391 104 C 391 94.6111584 418.5344848 87 452.5 87 C 486.4655152 87 514 94.6111584 514 104 C 514 113.3888416 486.4655152 121 452.5 121 C 418.5344848 121 391 113.3888416 391 104 Z" opacity="0.2"/></g><g transform="translate(-46,-14) scale(1,1)"><path fill="#ffffff" stroke="none" d="M 384 97 C 384 87.6111584 411.5344848 80 445.5 80 C 479.4655152 80 507 87.6111584 507 97 C 507 106.3888416 479.4655152 114 445.5 114 C 411.5344848 114 384 106.3888416 384 97 Z"/></g><g transform="translate(-46,-14) scale(1,1)"><path fill="none" stroke="#000000" d="M 384 97 C 384 87.6111584 411.5344848 80 445.5 80 C 479.4655152 80 507 87.6111584 507 97 C 507 106.3888416 479.4655152 114 445.5 114 C 411.5344848 114 384 106.3888416 384 97 Z" stroke-miterlimit="10"/></g><g transform="translate(-46,-14) scale(1,1)"><g><path fill="none" stroke="none"/><text fill="#000000" stroke="none" font-family="Arial" font-size="13px" font-style="normal" font-weight="bold" text-decoration="none" x="410.083251953125" y="104">deposit fund</text></g></g><g transform="translate(-46,-14) scale(1,1)"><path fill="#C0C0C0" stroke="none" d="M 407 168 C 407 158.6111584 437.6684912 151 475.5 151 C 513.3315088 151 544 158.6111584 544 168 C 544 177.3888416 513.3315088 185 475.5 185 C 437.6684912 185 407 177.3888416 407 168 Z" opacity="0.2"/></g><g transform="translate(-46,-14) scale(1,1)"><path fill="#ffffff" stroke="none" d="M 400 161 C 400 151.6111584 430.6684912 144 468.5 144 C 506.3315088 144 537 151.6111584 537 161 C 537 170.3888416 506.3315088 178 468.5 178 C 430.6684912 178 400 170.3888416 400 161 Z"/></g><g transform="translate(-46,-14) scale(1,1)"><path fill="none" stroke="#000000" d="M 400 161 C 400 151.6111584 430.6684912 144 468.5 144 C 506.3315088 144 537 151.6111584 537 161 C 537 170.3888416 506.3315088 178 468.5 178 C 430.6684912 178 400 170.3888416 400 161 Z" stroke-miterlimit="10"/></g><g transform="translate(-46,-14) scale(1,1)"><g><path fill="none" stroke="none"/><text fill="#000000" stroke="none" font-family="Arial" font-size="13px" font-style="normal" font-weight="bold" text-decoration="none" x="428.3955078125" y="168">withdraw fund</text></g></g><g transform="translate(-46,-14) scale(1,1)"><path fill="none" stroke="#000000" d="M 239 84 L 383 93" stroke-miterlimit="10"/></g><g transform="translate(-46,-14) scale(1,1)"><path fill="none" stroke="#000000" d="M 372.5945336509049 96.56738981019032 L 383 93 L 373.11969865722506 88.1647497090678" stroke-miterlimit="10"/></g><g transform="translate(-46,-14) scale(1,1)"><path fill="none" stroke="#000000" d="M 239 99 L 402 143" stroke-miterlimit="10"/></g><g transform="translate(-46,-14) scale(1,1)"><path fill="none" stroke="#000000" d="M 391.09146152863485 144.4155523369859 L 402 143 L 393.28555181745617 136.28744513067056" stroke-miterlimit="10"/></g><g transform="translate(-46,-14) scale(1,1)"><rect fill="#C0C0C0" stroke="none" x="311" y="247" width="46.65742187500001" height="15" opacity="0.2"/></g><g transform="translate(-46,-14) scale(1,1)"><rect fill="#C0C0C0" stroke="none" x="311" y="261" width="116.6435546875" height="25" opacity="0.2"/></g><g transform="translate(-46,-14) scale(1,1)"><rect fill="#ffffff" stroke="none" x="304" y="255" width="116.6435546875" height="24"/></g><g transform="translate(-46,-14) scale(1,1)"><path fill="none" stroke="#000000" d="M 304 255 L 420.6435546875 255 L 420.6435546875 279 L 304 279 L 304 255 Z Z" stroke-miterlimit="10"/></g><g transform="translate(-46,-14) scale(1,1)"><rect fill="#ffffff" stroke="none" x="304" y="240" width="46.65742187500001" height="15"/></g><g transform="translate(-46,-14) scale(1,1)"><path fill="none" stroke="#000000" d="M 304 240 L 350.657421875 240 L 350.657421875 255 L 304 255 L 304 240 Z Z" stroke-miterlimit="10"/></g><g transform="translate(-46,-14) scale(1,1)"><rect fill="#ffffff" stroke="none" x="304" y="254" width="116.6435546875" height="25"/></g><g transform="translate(-46,-14) scale(1,1)"><path fill="none" stroke="#000000" d="M 304 254 L 420.6435546875 254 L 420.6435546875 279 L 304 279 L 304 254 Z Z" stroke-miterlimit="10"/></g><g transform="translate(-46,-14) scale(1,1)"><g><path fill="none" stroke="none"/><text fill="#000000" stroke="none" font-family="Arial" font-size="13px" font-style="normal" font-weight="bold" text-decoration="none" x="312.095947265625" y="274.5">account manager</text></g></g><g transform="translate(-46,-14) scale(1,1)"><rect fill="#C0C0C0" stroke="none" x="255" y="863" width="19.600000000000023" height="15" opacity="0.2"/></g><g transform="translate(-46,-14) scale(1,1)"><rect fill="#C0C0C0" stroke="none" x="255" y="877" width="49" height="25" opacity="0.2"/></g><g transform="translate(-46,-14) scale(1,1)"><rect fill="#ffffff" stroke="none" x="248" y="871" width="49" height="24"/></g><g transform="translate(-46,-14) scale(1,1)"><path fill="none" stroke="#000000" d="M 248 871 L 297 871 L 297 895 L 248 895 L 248 871 Z Z" stroke-miterlimit="10"/></g><g transform="translate(-46,-14) scale(1,1)"><rect fill="#ffffff" stroke="none" x="248" y="856" width="19.600000000000023" height="15"/></g><g transform="translate(-46,-14) scale(1,1)"><path fill="none" stroke="#000000" d="M 248 856 L 267.6 856 L 267.6 871 L 248 871 L 248 856 Z Z" stroke-miterlimit="10"/></g><g transform="translate(-46,-14) scale(1,1)"><rect fill="#ffffff" stroke="none" x="248" y="870" width="49" height="25"/></g><g transform="translate(-46,-14) scale(1,1)"><path fill="none" stroke="#000000" d="M 248 870 L 297 870 L 297 895 L 248 895 L 248 870 Z Z" stroke-miterlimit="10"/></g><g transform="translate(-46,-14) scale(1,1)"><g><path fill="none" stroke="none"/><text fill="#000000" stroke="none" font-family="Arial" font-size="13px" font-style="normal" font-weight="bold" text-decoration="none" x="255.516845703125" y="890.5">public</text></g></g><g transform="translate(-46,-14) scale(1,1)"><path fill="#C0C0C0" stroke="none" d="M 343 352 C 343 342.6111584 371.6537728 335 407 335 C 442.3462272 335 471 342.6111584 471 352 C 471 361.3888416 442.3462272 369 407 369 C 371.6537728 369 343 361.3888416 343 352 Z" opacity="0.2"/></g><g transform="translate(-46,-14) scale(1,1)"><path fill="#ffffff" stroke="none" d="M 336 345 C 336 335.6111584 364.6537728 328 400 328 C 435.3462272 328 464 335.6111584 464 345 C 464 354.3888416 435.3462272 362 400 362 C 364.6537728 362 336 354.3888416 336 345 Z"/></g><g transform="translate(-46,-14) scale(1,1)"><path fill="none" stroke="#000000" d="M 336 345 C 336 335.6111584 364.6537728 328 400 328 C 435.3462272 328 464 335.6111584 464 345 C 464 354.3888416 435.3462272 362 400 362 C 364.6537728 362 336 354.3888416 336 345 Z" stroke-miterlimit="10"/></g><g transform="translate(-46,-14) scale(1,1)"><g><path fill="none" stroke="none"/><text fill="#000000" stroke="none" font-family="Arial" font-size="13px" font-style="normal" font-weight="bold" text-decoration="none" x="362.425048828125" y="352">view account</text></g></g><g transform="translate(-46,-14) scale(1,1)"><path fill="#C0C0C0" stroke="none" d="M 359 416 C 359 406.6111584 384.0720512 399 415 399 C 445.9279488 399 471 406.6111584 471 416 C 471 425.3888416 445.9279488 433 415 433 C 384.0720512 433 359 425.3888416 359 416 Z" opacity="0.2"/></g><g transform="translate(-46,-14) scale(1,1)"><path fill="#ffffff" stroke="none" d="M 352 409 C 352 399.6111584 377.0720512 392 408 392 C 438.9279488 392 464 399.6111584 464 409 C 464 418.3888416 438.9279488 426 408 426 C 377.0720512 426 352 418.3888416 352 409 Z"/></g><g transform="translate(-46,-14) scale(1,1)"><path fill="none" stroke="#000000" d="M 352 409 C 352 399.6111584 377.0720512 392 408 392 C 438.9279488 392 464 399.6111584 464 409 C 464 418.3888416 438.9279488 426 408 426 C 377.0720512 426 352 418.3888416 352 409 Z" stroke-miterlimit="10"/></g><g transform="translate(-46,-14) scale(1,1)"><g><path fill="none" stroke="none"/><text fill="#000000" stroke="none" font-family="Arial" font-size="13px" font-style="normal" font-weight="bold" text-decoration="none" x="375.84912109375" y="416">view status</text></g></g><g transform="translate(-46,-14) scale(1,1)"><path fill="#C0C0C0" stroke="none" d="M 311 512 C 311 502.6111584 361.36796 495 423.5 495 C 485.63204 495 536 502.6111584 536 512 C 536 521.3888416 485.63204 529 423.5 529 C 361.36796 529 311 521.3888416 311 512 Z" opacity="0.2"/></g><g transform="translate(-46,-14) scale(1,1)"><path fill="#ffffff" stroke="none" d="M 304 505 C 304 495.6111584 354.36796 488 416.5 488 C 478.63204 488 529 495.6111584 529 505 C 529 514.3888416 478.63204 522 416.5 522 C 354.36796 522 304 514.3888416 304 505 Z"/></g><g transform="translate(-46,-14) scale(1,1)"><path fill="none" stroke="#000000" d="M 304 505 C 304 495.6111584 354.36796 488 416.5 488 C 478.63204 488 529 495.6111584 529 505 C 529 514.3888416 478.63204 522 416.5 522 C 354.36796 522 304 514.3888416 304 505 Z" stroke-miterlimit="10"/></g><g transform="translate(-46,-14) scale(1,1)"><g><path fill="none" stroke="none"/><text fill="#000000" stroke="none" font-family="Arial" font-size="13px" font-style="normal" font-weight="bold" text-decoration="none" x="347.1328125" y="512">submit payment request</text></g></g><g transform="translate(-46,-14) scale(1,1)"><path fill="#C0C0C0" stroke="none" d="M 343 568 C 343 558.6111584 410.15728 551 493 551 C 575.84272 551 643 558.6111584 643 568 C 643 577.3888416 575.84272 585 493 585 C 410.15728 585 343 577.3888416 343 568 Z" opacity="0.2"/></g><g transform="translate(-46,-14) scale(1,1)"><path fill="#ffffff" stroke="none" d="M 336 561 C 336 551.6111584 403.15728 544 486 544 C 568.84272 544 636 551.6111584 636 561 C 636 570.3888416 568.84272 578 486 578 C 403.15728 578 336 570.3888416 336 561 Z"/></g><g transform="translate(-46,-14) scale(1,1)"><path fill="none" stroke="#000000" d="M 336 561 C 336 551.6111584 403.15728 544 486 544 C 568.84272 544 636 551.6111584 636 561 C 636 570.3888416 568.84272 578 486 578 C 403.15728 578 336 570.3888416 336 561 Z" stroke-miterlimit="10"/></g><g transform="translate(-46,-14) scale(1,1)"><g><path fill="none" stroke="none"/><text fill="#000000" stroke="none" font-family="Arial" font-size="13px" font-style="normal" font-weight="bold" text-decoration="none" x="392.794189453125" y="568">withdraw from company account</text></g></g><g transform="translate(-46,-14) scale(1,1)"><path fill="#C0C0C0" stroke="none" d="M 383 624 C 383 614.6111584 405.6096176 607 433.5 607 C 461.3903824 607 484 614.6111584 484 624 C 484 633.3888416 461.3903824 641 433.5 641 C 405.6096176 641 383 633.3888416 383 624 Z" opacity="0.2"/></g><g transform="translate(-46,-14) scale(1,1)"><path fill="#ffffff" stroke="none" d="M 376 617 C 376 607.6111584 398.6096176 600 426.5 600 C 454.3903824 600 477 607.6111584 477 617 C 477 626.3888416 454.3903824 634 426.5 634 C 398.6096176 634 376 626.3888416 376 617 Z"/></g><g transform="translate(-46,-14) scale(1,1)"><path fill="none" stroke="#000000" d="M 376 617 C 376 607.6111584 398.6096176 600 426.5 600 C 454.3903824 600 477 607.6111584 477 617 C 477 626.3888416 454.3903824 634 426.5 634 C 398.6096176 634 376 626.3888416 376 617 Z" stroke-miterlimit="10"/></g><g transform="translate(-46,-14) scale(1,1)"><g><path fill="none" stroke="none"/><text fill="#000000" stroke="none" font-family="Arial" font-size="13px" font-style="normal" font-weight="bold" text-decoration="none" x="402.2900390625" y="624">bulk pay</text></g></g><g transform="translate(-46,-14) scale(1,1)"><path fill="#C0C0C0" stroke="none" d="M 367 752 C 367 742.6111584 398.5639216 735 437.5 735 C 476.4360784 735 508 742.6111584 508 752 C 508 761.3888416 476.4360784 769 437.5 769 C 398.5639216 769 367 761.3888416 367 752 Z" opacity="0.2"/></g><g transform="translate(-46,-14) scale(1,1)"><path fill="#ffffff" stroke="none" d="M 360 745 C 360 735.6111584 391.5639216 728 430.5 728 C 469.4360784 728 501 735.6111584 501 745 C 501 754.3888416 469.4360784 762 430.5 762 C 391.5639216 762 360 754.3888416 360 745 Z"/></g><g transform="translate(-46,-14) scale(1,1)"><path fill="none" stroke="#000000" d="M 360 745 C 360 735.6111584 391.5639216 728 430.5 728 C 469.4360784 728 501 735.6111584 501 745 C 501 754.3888416 469.4360784 762 430.5 762 C 391.5639216 762 360 754.3888416 360 745 Z" stroke-miterlimit="10"/></g><g transform="translate(-46,-14) scale(1,1)"><g><path fill="none" stroke="none"/><text fill="#000000" stroke="none" font-family="Arial" font-size="13px" font-style="normal" font-weight="bold" text-decoration="none" x="389.31640625" y="752">submit invoice</text></g></g><g transform="translate(-46,-14) scale(1,1)"><path fill="#ffffff" stroke="none" d="M 616.4093503196023 41.68 C 616.4093503196023 36.886167936 620.2951926445477 33 625.088623046875 33 C 629.8820534492023 33 633.7678957741477 36.886167936 633.7678957741477 41.68 C 633.7678957741477 46.473832064 629.8820534492023 50.36 625.088623046875 50.36 C 620.2951926445477 50.36 616.4093503196023 46.473832064 616.4093503196023 41.68 Z"/></g><g transform="translate(-46,-14) scale(1,1)"><path fill="none" stroke="#000000" d="M 616.4093503196023 41.68 C 616.4093503196023 36.886167936 620.2951926445477 33 625.088623046875 33 C 629.8820534492023 33 633.7678957741477 36.886167936 633.7678957741477 41.68 C 633.7678957741477 46.473832064 629.8820534492023 50.36 625.088623046875 50.36 C 620.2951926445477 50.36 616.4093503196023 46.473832064 616.4093503196023 41.68 Z" stroke-miterlimit="10"/></g><g transform="translate(-46,-14) scale(1,1)"><path fill="none" stroke="#000000" d="M 625.088623046875 50.36 L 625.088623046875 67.64" stroke-miterlimit="10"/></g><g transform="translate(-46,-14) scale(1,1)"><path fill="none" stroke="#000000" d="M 615.8988048650568 56.84 L 634.2784412286932 56.84" stroke-miterlimit="10"/></g><g transform="translate(-46,-14) scale(1,1)"><path fill="none" stroke="#000000" d="M 625.088623046875 67.64 L 612.3249866832386 85" stroke-miterlimit="10"/></g><g transform="translate(-46,-14) scale(1,1)"><path fill="none" stroke="#000000" d="M 625.088623046875 67.64 L 637.8522594105114 85" stroke-miterlimit="10"/></g><g transform="translate(-46,-14) scale(1,1)"><g><path fill="none" stroke="none"/><text fill="#000000" stroke="none" font-family="Arial" font-size="13px" font-style="normal" font-weight="bold" text-decoration="none" x="611.003173828125" y="105.5">CEO</text></g></g><g transform="translate(-46,-14) scale(1,1)"><path fill="none" stroke="#000000" d="M 599 62 L 536 40 L 368 40 L 239 65" stroke-miterlimit="10"/></g><g transform="translate(-46,-14) scale(1,1)"><path fill="#FFFFFF" stroke="none" d="M 257.35229400395895 52.86767521073345 L 239 65 L 260.55588067057664 69.39818241048057"/></g><g transform="translate(-46,-14) scale(1,1)"><path fill="none" stroke="#000000" d="M 257.35229400395895 52.86767521073345 L 239 65 L 260.55588067057664 69.39818241048057 L 257.35229400395895 52.86767521073345" stroke-miterlimit="10"/></g><g transform="translate(-46,-14) scale(1,1)"><path fill="none" stroke="#000000" d="M 175 391 L 335 358" stroke-miterlimit="10"/></g><g transform="translate(-46,-14) scale(1,1)"><path fill="none" stroke="#000000" d="M 325.8971354692068 364.1755855863251 L 335 358 L 324.1965043161652 355.93010120794196" stroke-miterlimit="10"/></g><g transform="translate(-46,-14) scale(1,1)"><path fill="none" stroke="#000000" d="M 175 400 L 351 407" stroke-miterlimit="10"/></g><g transform="translate(-46,-14) scale(1,1)"><path fill="none" stroke="#000000" d="M 340.67806189593955 410.80231426580514 L 351 407 L 341.0126453700779 402.3899297731842" stroke-miterlimit="10"/></g><g transform="translate(-46,-14) scale(1,1)"><path fill="none" stroke="#000000" d="M 204 743 L 359 744" stroke-miterlimit="10"/></g><g transform="translate(-46,-14) scale(1,1)"><path fill="none" stroke="#000000" d="M 348.81037902396963 748.1438658719657 L 359 744 L 348.8646942517338 739.7250055685226" stroke-miterlimit="10"/></g><g transform="translate(-46,-14) scale(1,1)"><path fill="none" stroke="#000000" d="M 151 280 L 143 359" stroke-miterlimit="10"/></g><g transform="translate(-46,-14) scale(1,1)"><path fill="#FFFFFF" stroke="none" d="M 136.67159315539587 337.9298489134708 L 143 359 L 153.42398731998296 339.6262938921632"/></g><g transform="translate(-46,-14) scale(1,1)"><path fill="none" stroke="#000000" d="M 136.67159315539587 337.9298489134708 L 143 359 L 153.42398731998296 339.6262938921632 L 136.67159315539587 337.9298489134708" stroke-miterlimit="10"/></g><g transform="translate(-46,-14) scale(1,1)"><path fill="none" stroke="#000000" d="M 110 120 L 56 160 L 56 312 L 103 361" stroke-miterlimit="10"/></g><g transform="translate(-46,-14) scale(1,1)"><path fill="#FFFFFF" stroke="none" d="M 82.85441825468206 352.1594380188411 L 103 361 L 95.00614386331522 340.5037012105603"/></g><g transform="translate(-46,-14) scale(1,1)"><path fill="none" stroke="#000000" d="M 82.85441825468206 352.1594380188411 L 103 361 L 95.00614386331522 340.5037012105603 L 82.85441825468206 352.1594380188411" stroke-miterlimit="10"/></g><g transform="translate(-46,-14) scale(1,1)"><path fill="#C0C0C0" stroke="none" d="M 231 192 C 231 182.6111584 269.27964959999997 175 316.5 175 C 363.72035040000003 175 402 182.6111584 402 192 C 402 201.3888416 363.72035040000003 209 316.5 209 C 269.27964959999997 209 231 201.3888416 231 192 Z" opacity="0.2"/></g><g transform="translate(-46,-14) scale(1,1)"><path fill="#ffff91" stroke="none" d="M 224 185 C 224 175.6111584 262.27964959999997 168 309.5 168 C 356.72035040000003 168 395 175.6111584 395 185 C 395 194.3888416 356.72035040000003 202 309.5 202 C 262.27964959999997 202 224 194.3888416 224 185 Z"/></g><g transform="translate(-46,-14) scale(1,1)"><path fill="none" stroke="#000000" d="M 224 185 C 224 175.6111584 262.27964959999997 168 309.5 168 C 356.72035040000003 168 395 175.6111584 395 185 C 395 194.3888416 356.72035040000003 202 309.5 202 C 262.27964959999997 202 224 194.3888416 224 185 Z" stroke-miterlimit="10"/></g><g transform="translate(-46,-14) scale(1,1)"><g><path fill="none" stroke="none"/><text fill="#000000" stroke="none" font-family="Arial" font-size="13px" font-style="normal" font-weight="bold" text-decoration="none" x="257.833251953125" y="192">create transaction</text></g></g><g transform="translate(-46,-14) scale(1,1)"><path fill="none" stroke="#000000" d="M 221 120 L 285 167" stroke-miterlimit="10"/></g><g transform="translate(-46,-14) scale(1,1)"><path fill="none" stroke="#000000" d="M 274.31718548678793 164.37750613417205 L 285 167 L 279.3004926116967 157.5917262194026" stroke-miterlimit="10"/></g><g transform="translate(-46,-14) scale(1,1)"><path fill="none" stroke="#000000" d="M 215 218 L 258 203" stroke-miterlimit="10"/></g><g transform="translate(-46,-14) scale(1,1)"><path fill="none" stroke="#000000" d="M 249.79089849581598 210.32192956084688 L 258 203 L 247.0179026150977 202.37267470278786" stroke-miterlimit="10"/></g><g transform="translate(-46,-14) scale(1,1)"><path fill="#C0C0C0" stroke="none" d="M 815 104 C 815 94.6111584 855.0705104 87 904.5 87 C 953.9294896 87 994 94.6111584 994 104 C 994 113.3888416 953.9294896 121 904.5 121 C 855.0705104 121 815 113.3888416 815 104 Z" opacity="0.2"/></g><g transform="translate(-46,-14) scale(1,1)"><path fill="#ffffff" stroke="none" d="M 808 97 C 808 87.6111584 848.0705104 80 897.5 80 C 946.9294896 80 987 87.6111584 987 97 C 987 106.3888416 946.9294896 114 897.5 114 C 848.0705104 114 808 106.3888416 808 97 Z"/></g><g transform="translate(-46,-14) scale(1,1)"><path fill="none" stroke="#000000" d="M 808 97 C 808 87.6111584 848.0705104 80 897.5 80 C 946.9294896 80 987 87.6111584 987 97 C 987 106.3888416 946.9294896 114 897.5 114 C 848.0705104 114 808 106.3888416 808 97 Z" stroke-miterlimit="10"/></g><g transform="translate(-46,-14) scale(1,1)"><g><path fill="none" stroke="none"/><text fill="#000000" stroke="none" font-family="Arial" font-size="13px" font-style="normal" font-weight="bold" text-decoration="none" x="842.215087890625" y="104">view balance sheet</text></g></g><g transform="translate(-46,-14) scale(1,1)"><path fill="none" stroke="#000000" d="M 651 74 L 807 88" stroke-miterlimit="10"/></g><g transform="translate(-46,-14) scale(1,1)"><path fill="none" stroke="#000000" d="M 796.5017391610152 91.28428369003598 L 807 88 L 797.2542693015238 82.89894783865343" stroke-miterlimit="10"/></g><g transform="translate(-46,-14) scale(1,1)"><path fill="#C0C0C0" stroke="none" d="M 599 672 C 599 662.6111584 628.9969184 655 666 655 C 703.0030816 655 733 662.6111584 733 672 C 733 681.3888416 703.0030816 689 666 689 C 628.9969184 689 599 681.3888416 599 672 Z" opacity="0.2"/></g><g transform="translate(-46,-14) scale(1,1)"><path fill="#ffffff" stroke="none" d="M 592 665 C 592 655.6111584 621.9969184 648 659 648 C 696.0030816 648 726 655.6111584 726 665 C 726 674.3888416 696.0030816 682 659 682 C 621.9969184 682 592 674.3888416 592 665 Z"/></g><g transform="translate(-46,-14) scale(1,1)"><path fill="none" stroke="#000000" d="M 592 665 C 592 655.6111584 621.9969184 648 659 648 C 696.0030816 648 726 655.6111584 726 665 C 726 674.3888416 696.0030816 682 659 682 C 621.9969184 682 592 674.3888416 592 665 Z" stroke-miterlimit="10"/></g><g transform="translate(-46,-14) scale(1,1)"><g><path fill="none" stroke="none"/><text fill="#000000" stroke="none" font-family="Arial" font-size="13px" font-style="normal" font-weight="bold" text-decoration="none" x="618.530517578125" y="672">pay employee</text></g></g><g transform="translate(-46,-14) scale(1,1)"><path fill="#C0C0C0" stroke="none" d="M 783 48 C 783 38.6111584 836.2781088 31 902 31 C 967.7218912 31 1021 38.6111584 1021 48 C 1021 57.3888416 967.7218912 65 902 65 C 836.2781088 65 783 57.3888416 783 48 Z" opacity="0.2"/></g><g transform="translate(-46,-14) scale(1,1)"><path fill="#ffffff" stroke="none" d="M 776 41 C 776 31.6111584 829.2781088 24 895 24 C 960.7218912 24 1014 31.6111584 1014 41 C 1014 50.3888416 960.7218912 58 895 58 C 829.2781088 58 776 50.3888416 776 41 Z"/></g><g transform="translate(-46,-14) scale(1,1)"><path fill="none" stroke="#000000" d="M 776 41 C 776 31.6111584 829.2781088 24 895 24 C 960.7218912 24 1014 31.6111584 1014 41 C 1014 50.3888416 960.7218912 58 895 58 C 829.2781088 58 776 50.3888416 776 41 Z" stroke-miterlimit="10"/></g><g transform="translate(-46,-14) scale(1,1)"><g><path fill="none" stroke="none"/><text fill="#000000" stroke="none" font-family="Arial" font-size="13px" font-style="normal" font-weight="bold" text-decoration="none" x="822.02734375" y="48">view profit/loss statement</text></g></g><g transform="translate(-46,-14) scale(1,1)"><path fill="#C0C0C0" stroke="none" d="M 847 160 C 847 150.6111584 904.3075456 143 975 143 C 1045.6924544 143 1103 150.6111584 1103 160 C 1103 169.3888416 1045.6924544 177 975 177 C 904.3075456 177 847 169.3888416 847 160 Z" opacity="0.2"/></g><g transform="translate(-46,-14) scale(1,1)"><path fill="#ffffff" stroke="none" d="M 840 153 C 840 143.6111584 897.3075456 136 968 136 C 1038.6924544 136 1096 143.6111584 1096 153 C 1096 162.3888416 1038.6924544 170 968 170 C 897.3075456 170 840 162.3888416 840 153 Z"/></g><g transform="translate(-46,-14) scale(1,1)"><path fill="none" stroke="#000000" d="M 840 153 C 840 143.6111584 897.3075456 136 968 136 C 1038.6924544 136 1096 143.6111584 1096 153 C 1096 162.3888416 1038.6924544 170 968 170 C 897.3075456 170 840 162.3888416 840 153 Z" stroke-miterlimit="10"/></g><g transform="translate(-46,-14) scale(1,1)"><g><path fill="none" stroke="none"/><text fill="#000000" stroke="none" font-family="Arial" font-size="13px" font-style="normal" font-weight="bold" text-decoration="none" x="888.52099609375" y="160">view statement of cash flow</text></g></g><g transform="translate(-46,-14) scale(1,1)"><path fill="#C0C0C0" stroke="none" d="M 815 224 C 815 214.6111584 862.9055264 207 922 207 C 981.0944736 207 1029 214.6111584 1029 224 C 1029 233.3888416 981.0944736 241 922 241 C 862.9055264 241 815 233.3888416 815 224 Z" opacity="0.2"/></g><g transform="translate(-46,-14) scale(1,1)"><path fill="#ffffff" stroke="none" d="M 808 217 C 808 207.6111584 855.9055264 200 915 200 C 974.0944736 200 1022 207.6111584 1022 217 C 1022 226.3888416 974.0944736 234 915 234 C 855.9055264 234 808 226.3888416 808 217 Z"/></g><g transform="translate(-46,-14) scale(1,1)"><path fill="none" stroke="#000000" d="M 808 217 C 808 207.6111584 855.9055264 200 915 200 C 974.0944736 200 1022 207.6111584 1022 217 C 1022 226.3888416 974.0944736 234 915 234 C 855.9055264 234 808 226.3888416 808 217 Z" stroke-miterlimit="10"/></g><g transform="translate(-46,-14) scale(1,1)"><g><path fill="none" stroke="none"/><text fill="#000000" stroke="none" font-family="Arial" font-size="13px" font-style="normal" font-weight="bold" text-decoration="none" x="848.88916015625" y="224">view income statement</text></g></g><g transform="translate(-46,-14) scale(1,1)"><path fill="none" stroke="#000000" d="M 651 68 L 775 54" stroke-miterlimit="10"/></g><g transform="translate(-46,-14) scale(1,1)"><path fill="none" stroke="#000000" d="M 765.3737525461526 59.32309683899285 L 775 54 L 764.4292172762403 50.957213019769256" stroke-miterlimit="10"/></g><g transform="translate(-46,-14) scale(1,1)"><path fill="none" stroke="#000000" d="M 651 77 L 893 135" stroke-miterlimit="10"/></g><g transform="translate(-46,-14) scale(1,1)"><path fill="none" stroke="#000000" d="M 882.1360951223483 136.72498429248958 L 893 135 L 884.0983111001872 128.53780728150653" stroke-miterlimit="10"/></g><g transform="translate(-46,-14) scale(1,1)"><path fill="none" stroke="#000000" d="M 651 84 L 879 199" stroke-miterlimit="10"/></g><g transform="translate(-46,-14) scale(1,1)"><path fill="none" stroke="#000000" d="M 868.0304722678383 198.18179383201186 L 879 199 L 871.8219316839676 190.66481342438144" stroke-miterlimit="10"/></g><g transform="translate(-46,-14) scale(1,1)"><path fill="none" stroke="#000000" d="M 478 628 L 591 651" stroke-miterlimit="10" stroke-dasharray="3"/></g><g transform="translate(-46,-14) scale(1,1)"><path fill="none" stroke="#000000" d="M 580.2019246218208 653.097991450688 L 591 651 L 581.8811036946731 644.8481116579788" stroke-miterlimit="10"/></g><g transform="translate(-46,-14) scale(1,1)"><g><path fill="none" stroke="none"/><text fill="#000000" stroke="none" font-family="Arial" font-size="13px" font-style="normal" font-weight="normal" text-decoration="none" x="512.5" y="615.5">«include»</text></g></g><g transform="translate(-46,-14) scale(1,1)"><path fill="#ffffff" stroke="none" d="M 736 520 L 861 520 L 871 530 L 871 575 L 736 575 L 736 520"/></g><g transform="translate(-46,-14) scale(1,1)"><path fill="none" stroke="#000000" d="M 736 520 L 861 520 L 871 530 L 871 575 L 736 575 L 736 520 L 736 520" stroke-miterlimit="10"/></g><g transform="translate(-46,-14) scale(1,1)"><path fill="none" stroke="#000000" d="M 861 520 L 861 530 L 871 530 L 861 520" stroke-miterlimit="10"/></g><g transform="translate(-46,-14) scale(1,1)"><g><path fill="none" stroke="none"/><text fill="#000000" stroke="none" font-family="Arial" font-size="13px" font-style="normal" font-weight="normal" text-decoration="none" x="741" y="538">{if payment request is</text><text fill="#000000" stroke="none" font-family="Arial" font-size="13px" font-style="normal" font-weight="normal" text-decoration="none" x="741" y="551">approved}</text></g></g><g transform="translate(-46,-14) scale(1,1)"><path fill="none" stroke="#000000" d="M 735 551 L 637 555" stroke-miterlimit="10" stroke-dasharray="3"/></g><g transform="translate(-46,-14) scale(1,1)"><path fill="#ffffff" stroke="none" d="M 160.40935031960228 553.6800000000001 C 160.40935031960228 548.8861679360001 164.29519264454774 545 169.088623046875 545 C 173.88205344920226 545 177.76789577414772 548.8861679360001 177.76789577414772 553.6800000000001 C 177.76789577414772 558.473832064 173.88205344920226 562.36 169.088623046875 562.36 C 164.29519264454774 562.36 160.40935031960228 558.473832064 160.40935031960228 553.6800000000001 Z"/></g><g transform="translate(-46,-14) scale(1,1)"><path fill="none" stroke="#000000" d="M 160.40935031960228 553.6800000000001 C 160.40935031960228 548.8861679360001 164.29519264454774 545 169.088623046875 545 C 173.88205344920226 545 177.76789577414772 548.8861679360001 177.76789577414772 553.6800000000001 C 177.76789577414772 558.473832064 173.88205344920226 562.36 169.088623046875 562.36 C 164.29519264454774 562.36 160.40935031960228 558.473832064 160.40935031960228 553.6800000000001 Z" stroke-miterlimit="10"/></g><g transform="translate(-46,-14) scale(1,1)"><path fill="none" stroke="#000000" d="M 169.088623046875 562.36 L 169.088623046875 579.64" stroke-miterlimit="10"/></g><g transform="translate(-46,-14) scale(1,1)"><path fill="none" stroke="#000000" d="M 159.89880486505683 568.84 L 178.27844122869317 568.84" stroke-miterlimit="10"/></g><g transform="translate(-46,-14) scale(1,1)"><path fill="none" stroke="#000000" d="M 169.088623046875 579.64 L 156.32498668323865 597" stroke-miterlimit="10"/></g><g transform="translate(-46,-14) scale(1,1)"><path fill="none" stroke="#000000" d="M 169.088623046875 579.64 L 181.85225941051135 597" stroke-miterlimit="10"/></g><g transform="translate(-46,-14) scale(1,1)"><g><path fill="none" stroke="none"/><text fill="#000000" stroke="none" font-family="Arial" font-size="13px" font-style="normal" font-weight="bold" text-decoration="none" x="159.700439453125" y="617.5">HR</text></g></g><g transform="translate(-46,-14) scale(1,1)"><path fill="none" stroke="#000000" d="M 195 575 L 359 523" stroke-miterlimit="10"/></g><g transform="translate(-46,-14) scale(1,1)"><path fill="none" stroke="#000000" d="M 350.5849278631424 530.0842473793257 L 359 523 L 348.0403260663298 522.0589647893783" stroke-miterlimit="10"/></g><g transform="translate(-46,-14) scale(1,1)"><path fill="none" stroke="#000000" d="M 195 581 L 335 571" stroke-miterlimit="10"/></g><g transform="translate(-46,-14) scale(1,1)"><path fill="none" stroke="#000000" d="M 325.16306727169956 575.9228807114221 L 335 571 L 324.5632358277239 567.525240495762" stroke-miterlimit="10"/></g><g transform="translate(-46,-14) scale(1,1)"><path fill="none" stroke="#000000" d="M 195 586 L 375 610" stroke-miterlimit="10"/></g><g transform="translate(-46,-14) scale(1,1)"><path fill="none" stroke="#000000" d="M 364.37012760913274 612.8294545329229 L 375 610 L 365.4828186619813 604.4842716365589" stroke-miterlimit="10"/></g></g></svg>