<svg version="1.1" xmlns="http://www.w3.org/2000/svg" xmlns:xlink="http://www.w3.org/1999/xlink" width="1070" height="784"><defs/><g><g transform="translate(-86,-62) scale(1,1)"><path fill="#ffffff" stroke="none" d="M 377.35661594460225 378.68 C 377.35661594460225 373.886167936 381.24245826954774 370 386.035888671875 370 C 390.82931907420226 370 394.71516139914775 373.886167936 394.71516139914775 378.68 C 394.71516139914775 383.473832064 390.82931907420226 387.36 386.035888671875 387.36 C 381.24245826954774 387.36 377.35661594460225 383.473832064 377.35661594460225 378.68 Z"/></g><g transform="translate(-86,-62) scale(1,1)"><path fill="none" stroke="#000000" d="M 377.35661594460225 378.68 C 377.35661594460225 373.886167936 381.24245826954774 370 386.035888671875 370 C 390.82931907420226 370 394.71516139914775 373.886167936 394.71516139914775 378.68 C 394.71516139914775 383.473832064 390.82931907420226 387.36 386.035888671875 387.36 C 381.24245826954774 387.36 377.35661594460225 383.473832064 377.35661594460225 378.68 Z" stroke-miterlimit="10"/></g><g transform="translate(-86,-62) scale(1,1)"><path fill="none" stroke="#000000" d="M 386.035888671875 387.36 L 386.035888671875 404.64" stroke-miterlimit="10"/></g><g transform="translate(-86,-62) scale(1,1)"><path fill="none" stroke="#000000" d="M 376.84607049005683 393.84 L 395.22570685369317 393.84" stroke-miterlimit="10"/></g><g transform="translate(-86,-62) scale(1,1)"><path fill="none" stroke="#000000" d="M 386.035888671875 404.64 L 373.27225230823865 422" stroke-miterlimit="10"/></g><g transform="translate(-86,-62) scale(1,1)"><path fill="none" stroke="#000000" d="M 386.035888671875 404.64 L 398.79952503551135 422" stroke-miterlimit="10"/></g><g transform="translate(-86,-62) scale(1,1)"><g><path fill="none" stroke="none"/><text fill="#000000" stroke="none" font-family="Arial" font-size="13px" font-style="normal" font-weight="bold" text-decoration="none" x="362.549560546875" y="442.5">Account</text><text fill="#000000" stroke="none" font-family="Arial" font-size="13px" font-style="normal" font-weight="bold" text-decoration="none" x="360.3818359375" y="455.5">Manager</text></g></g><g transform="translate(-86,-62) scale(1,1)"><g><path fill="none" stroke="none"/><text fill="#000000" stroke="none" font-family="Arial" font-size="13px" font-style="normal" font-weight="normal" text-decoration="none" x="349.197265625" y="470.5">(from Model)</text></g></g><g transform="translate(-86,-62) scale(1,1)"><path fill="#C0C0C0" stroke="none" d="M 103 193 C 103 178.6405952 137.0263552 167 179 167 C 220.9736448 167 255 178.6405952 255 193 C 255 207.3594048 220.9736448 219 179 219 C 137.0263552 219 103 207.3594048 103 193 Z" opacity="0.2"/></g><g transform="translate(-86,-62) scale(1,1)"><path fill="#ffffff" stroke="none" d="M 96 186 C 96 171.6405952 130.0263552 160 172 160 C 213.9736448 160 248 171.6405952 248 186 C 248 200.3594048 213.9736448 212 172 212 C 130.0263552 212 96 200.3594048 96 186 Z"/></g><g transform="translate(-86,-62) scale(1,1)"><path fill="none" stroke="#000000" d="M 96 186 C 96 171.6405952 130.0263552 160 172 160 C 213.9736448 160 248 171.6405952 248 186 C 248 200.3594048 213.9736448 212 172 212 C 130.0263552 212 96 200.3594048 96 186 Z" stroke-miterlimit="10"/></g><g transform="translate(-86,-62) scale(1,1)"><g><path fill="none" stroke="none"/><text fill="#000000" stroke="none" font-family="Arial" font-size="13px" font-style="normal" font-weight="bold" text-decoration="none" x="134.77734375" y="186.5">update asset</text><text fill="#000000" stroke="none" font-family="Arial" font-size="13px" font-style="normal" font-weight="bold" text-decoration="none" x="149.234130859375" y="199.5">account</text></g></g><g transform="translate(-86,-62) scale(1,1)"><path fill="#C0C0C0" stroke="none" d="M 279 105 C 279 90.6405952 313.0263552 79 355 79 C 396.9736448 79 431 90.6405952 431 105 C 431 119.3594048 396.9736448 131 355 131 C 313.0263552 131 279 119.3594048 279 105 Z" opacity="0.2"/></g><g transform="translate(-86,-62) scale(1,1)"><path fill="#ffffff" stroke="none" d="M 272 98 C 272 83.6405952 306.0263552 72 348 72 C 389.9736448 72 424 83.6405952 424 98 C 424 112.3594048 389.9736448 124 348 124 C 306.0263552 124 272 112.3594048 272 98 Z"/></g><g transform="translate(-86,-62) scale(1,1)"><path fill="none" stroke="#000000" d="M 272 98 C 272 83.6405952 306.0263552 72 348 72 C 389.9736448 72 424 83.6405952 424 98 C 424 112.3594048 389.9736448 124 348 124 C 306.0263552 124 272 112.3594048 272 98 Z" stroke-miterlimit="10"/></g><g transform="translate(-86,-62) scale(1,1)"><g><path fill="none" stroke="none"/><text fill="#000000" stroke="none" font-family="Arial" font-size="13px" font-style="normal" font-weight="bold" text-decoration="none" x="306.806884765625" y="98.5">update liability</text><text fill="#000000" stroke="none" font-family="Arial" font-size="13px" font-style="normal" font-weight="bold" text-decoration="none" x="325.234130859375" y="111.5">account</text></g></g><g transform="translate(-86,-62) scale(1,1)"><path fill="#C0C0C0" stroke="none" d="M 439 153 C 439 138.6405952 476.6080768 127 523 127 C 569.3919232 127 607 138.6405952 607 153 C 607 167.3594048 569.3919232 179 523 179 C 476.6080768 179 439 167.3594048 439 153 Z" opacity="0.2"/></g><g transform="translate(-86,-62) scale(1,1)"><path fill="#ffffff" stroke="none" d="M 432 146 C 432 131.6405952 469.6080768 120 516 120 C 562.3919232 120 600 131.6405952 600 146 C 600 160.3594048 562.3919232 172 516 172 C 469.6080768 172 432 160.3594048 432 146 Z"/></g><g transform="translate(-86,-62) scale(1,1)"><path fill="none" stroke="#000000" d="M 432 146 C 432 131.6405952 469.6080768 120 516 120 C 562.3919232 120 600 131.6405952 600 146 C 600 160.3594048 562.3919232 172 516 172 C 469.6080768 172 432 160.3594048 432 146 Z" stroke-miterlimit="10"/></g><g transform="translate(-86,-62) scale(1,1)"><g><path fill="none" stroke="none"/><text fill="#000000" stroke="none" font-family="Arial" font-size="13px" font-style="normal" font-weight="bold" text-decoration="none" x="470.82373046875" y="146.5">update revenue</text><text fill="#000000" stroke="none" font-family="Arial" font-size="13px" font-style="normal" font-weight="bold" text-decoration="none" x="493.234130859375" y="159.5">account</text></g></g><g transform="translate(-86,-62) scale(1,1)"><path fill="#C0C0C0" stroke="none" d="M 647 225 C 647 210.6405952 688.1897984 199 739 199 C 789.8102016 199 831 210.6405952 831 225 C 831 239.3594048 789.8102016 251 739 251 C 688.1897984 251 647 239.3594048 647 225 Z" opacity="0.2"/></g><g transform="translate(-86,-62) scale(1,1)"><path fill="#ffffff" stroke="none" d="M 640 218 C 640 203.6405952 681.1897984 192 732 192 C 782.8102016 192 824 203.6405952 824 218 C 824 232.3594048 782.8102016 244 732 244 C 681.1897984 244 640 232.3594048 640 218 Z"/></g><g transform="translate(-86,-62) scale(1,1)"><path fill="none" stroke="#000000" d="M 640 218 C 640 203.6405952 681.1897984 192 732 192 C 782.8102016 192 824 203.6405952 824 218 C 824 232.3594048 782.8102016 244 732 244 C 681.1897984 244 640 232.3594048 640 218 Z" stroke-miterlimit="10"/></g><g transform="translate(-86,-62) scale(1,1)"><g><path fill="none" stroke="none"/><text fill="#000000" stroke="none" font-family="Arial" font-size="13px" font-style="normal" font-weight="bold" text-decoration="none" x="685.73828125" y="218.5">update expense</text><text fill="#000000" stroke="none" font-family="Arial" font-size="13px" font-style="normal" font-weight="bold" text-decoration="none" x="709.234130859375" y="231.5">account</text></g></g><g transform="translate(-86,-62) scale(1,1)"><path fill="#C0C0C0" stroke="none" d="M 791 305 C 791 290.6405952 826.817216 279 871 279 C 915.182784 279 951 290.6405952 951 305 C 951 319.3594048 915.182784 331 871 331 C 826.817216 331 791 319.3594048 791 305 Z" opacity="0.2"/></g><g transform="translate(-86,-62) scale(1,1)"><path fill="#ffffff" stroke="none" d="M 784 298 C 784 283.6405952 819.817216 272 864 272 C 908.182784 272 944 283.6405952 944 298 C 944 312.3594048 908.182784 324 864 324 C 819.817216 324 784 312.3594048 784 298 Z"/></g><g transform="translate(-86,-62) scale(1,1)"><path fill="none" stroke="#000000" d="M 784 298 C 784 283.6405952 819.817216 272 864 272 C 908.182784 272 944 283.6405952 944 298 C 944 312.3594048 908.182784 324 864 324 C 819.817216 324 784 312.3594048 784 298 Z" stroke-miterlimit="10"/></g><g transform="translate(-86,-62) scale(1,1)"><g><path fill="none" stroke="none"/><text fill="#000000" stroke="none" font-family="Arial" font-size="13px" font-style="normal" font-weight="bold" text-decoration="none" x="819.54736328125" y="298.5">update account</text><text fill="#000000" stroke="none" font-family="Arial" font-size="13px" font-style="normal" font-weight="bold" text-decoration="none" x="848.09912109375" y="311.5">sheet</text></g></g><g transform="translate(-86,-62) scale(1,1)"><path fill="#C0C0C0" stroke="none" d="M 903 377 C 903 362.6405952 932.7730607999999 351 969.5 351 C 1006.2269392000001 351 1036 362.6405952 1036 377 C 1036 391.3594048 1006.2269392000001 403 969.5 403 C 932.7730607999999 403 903 391.3594048 903 377 Z" opacity="0.2"/></g><g transform="translate(-86,-62) scale(1,1)"><path fill="#ffffff" stroke="none" d="M 896 370 C 896 355.6405952 925.7730607999999 344 962.5 344 C 999.2269392000001 344 1029 355.6405952 1029 370 C 1029 384.3594048 999.2269392000001 396 962.5 396 C 925.7730607999999 396 896 384.3594048 896 370 Z"/></g><g transform="translate(-86,-62) scale(1,1)"><path fill="none" stroke="#000000" d="M 896 370 C 896 355.6405952 925.7730607999999 344 962.5 344 C 999.2269392000001 344 1029 355.6405952 1029 370 C 1029 384.3594048 999.2269392000001 396 962.5 396 C 925.7730607999999 396 896 384.3594048 896 370 Z" stroke-miterlimit="10"/></g><g transform="translate(-86,-62) scale(1,1)"><g><path fill="none" stroke="none"/><text fill="#000000" stroke="none" font-family="Arial" font-size="13px" font-style="normal" font-weight="bold" text-decoration="none" x="942.619140625" y="370.5">update</text><text fill="#000000" stroke="none" font-family="Arial" font-size="13px" font-style="normal" font-weight="bold" text-decoration="none" x="944.431396484375" y="383.5">ledger</text></g></g><g transform="translate(-86,-62) scale(1,1)"><path fill="#C0C0C0" stroke="none" d="M 975 474.5 C 975 459.312168 1014.3989376 447 1063 447 C 1111.6010624 447 1151 459.312168 1151 474.5 C 1151 489.687832 1111.6010624 502 1063 502 C 1014.3989376 502 975 489.687832 975 474.5 Z" opacity="0.2"/></g><g transform="translate(-86,-62) scale(1,1)"><path fill="#ffffff" stroke="none" d="M 968 467.5 C 968 452.312168 1007.3989376 440 1056 440 C 1104.6010624 440 1144 452.312168 1144 467.5 C 1144 482.687832 1104.6010624 495 1056 495 C 1007.3989376 495 968 482.687832 968 467.5 Z"/></g><g transform="translate(-86,-62) scale(1,1)"><path fill="none" stroke="#000000" d="M 968 467.5 C 968 452.312168 1007.3989376 440 1056 440 C 1104.6010624 440 1144 452.312168 1144 467.5 C 1144 482.687832 1104.6010624 495 1056 495 C 1007.3989376 495 968 482.687832 968 467.5 Z" stroke-miterlimit="10"/></g><g transform="translate(-86,-62) scale(1,1)"><g><path fill="none" stroke="none"/><text fill="#000000" stroke="none" font-family="Arial" font-size="13px" font-style="normal" font-weight="bold" text-decoration="none" x="1007.589599609375" y="468">update summary</text><text fill="#000000" stroke="none" font-family="Arial" font-size="13px" font-style="normal" font-weight="bold" text-decoration="none" x="1033.234130859375" y="481">account</text></g></g><g transform="translate(-86,-62) scale(1,1)"><path fill="#C0C0C0" stroke="none" d="M 919 601 C 919 586.6405952 961.9806592 575 1015 575 C 1068.0193408 575 1111 586.6405952 1111 601 C 1111 615.3594048 1068.0193408 627 1015 627 C 961.9806592 627 919 615.3594048 919 601 Z" opacity="0.2"/></g><g transform="translate(-86,-62) scale(1,1)"><path fill="#ffffff" stroke="none" d="M 912 594 C 912 579.6405952 954.9806592 568 1008 568 C 1061.0193408 568 1104 579.6405952 1104 594 C 1104 608.3594048 1061.0193408 620 1008 620 C 954.9806592 620 912 608.3594048 912 594 Z"/></g><g transform="translate(-86,-62) scale(1,1)"><path fill="none" stroke="#000000" d="M 912 594 C 912 579.6405952 954.9806592 568 1008 568 C 1061.0193408 568 1104 579.6405952 1104 594 C 1104 608.3594048 1061.0193408 620 1008 620 C 954.9806592 620 912 608.3594048 912 594 Z" stroke-miterlimit="10"/></g><g transform="translate(-86,-62) scale(1,1)"><g><path fill="none" stroke="none"/><text fill="#000000" stroke="none" font-family="Arial" font-size="13px" font-style="normal" font-weight="bold" text-decoration="none" x="958.497802734375" y="594.5">update profit/loss</text><text fill="#000000" stroke="none" font-family="Arial" font-size="13px" font-style="normal" font-weight="bold" text-decoration="none" x="979.457763671875" y="607.5">statement</text></g></g><g transform="translate(-86,-62) scale(1,1)"><path fill="#C0C0C0" stroke="none" d="M 879 673 C 879 658.6405952 913.0263552 647 955 647 C 996.9736448 647 1031 658.6405952 1031 673 C 1031 687.3594048 996.9736448 699 955 699 C 913.0263552 699 879 687.3594048 879 673 Z" opacity="0.2"/></g><g transform="translate(-86,-62) scale(1,1)"><path fill="#ffffff" stroke="none" d="M 872 666 C 872 651.6405952 906.0263552 640 948 640 C 989.9736448 640 1024 651.6405952 1024 666 C 1024 680.3594048 989.9736448 692 948 692 C 906.0263552 692 872 680.3594048 872 666 Z"/></g><g transform="translate(-86,-62) scale(1,1)"><path fill="none" stroke="#000000" d="M 872 666 C 872 651.6405952 906.0263552 640 948 640 C 989.9736448 640 1024 651.6405952 1024 666 C 1024 680.3594048 989.9736448 692 948 692 C 906.0263552 692 872 680.3594048 872 666 Z" stroke-miterlimit="10"/></g><g transform="translate(-86,-62) scale(1,1)"><g><path fill="none" stroke="none"/><text fill="#000000" stroke="none" font-family="Arial" font-size="13px" font-style="normal" font-weight="bold" text-decoration="none" x="903.544189453125" y="666.5">update balance</text><text fill="#000000" stroke="none" font-family="Arial" font-size="13px" font-style="normal" font-weight="bold" text-decoration="none" x="932.09912109375" y="679.5">sheet</text></g></g><g transform="translate(-86,-62) scale(1,1)"><path fill="#C0C0C0" stroke="none" d="M 671 761 C 671 746.6405952 721.1441024 735 783 735 C 844.8558976 735 895 746.6405952 895 761 C 895 775.3594048 844.8558976 787 783 787 C 721.1441024 787 671 775.3594048 671 761 Z" opacity="0.2"/></g><g transform="translate(-86,-62) scale(1,1)"><path fill="#ffffff" stroke="none" d="M 664 754 C 664 739.6405952 714.1441024 728 776 728 C 837.8558976 728 888 739.6405952 888 754 C 888 768.3594048 837.8558976 780 776 780 C 714.1441024 780 664 768.3594048 664 754 Z"/></g><g transform="translate(-86,-62) scale(1,1)"><path fill="none" stroke="#000000" d="M 664 754 C 664 739.6405952 714.1441024 728 776 728 C 837.8558976 728 888 739.6405952 888 754 C 888 768.3594048 837.8558976 780 776 780 C 714.1441024 780 664 768.3594048 664 754 Z" stroke-miterlimit="10"/></g><g transform="translate(-86,-62) scale(1,1)"><g><path fill="none" stroke="none"/><text fill="#000000" stroke="none" font-family="Arial" font-size="13px" font-style="normal" font-weight="bold" text-decoration="none" x="718.544189453125" y="754.5">update statement of</text><text fill="#000000" stroke="none" font-family="Arial" font-size="13px" font-style="normal" font-weight="bold" text-decoration="none" x="748.905029296875" y="767.5">cash flow</text></g></g><g transform="translate(-86,-62) scale(1,1)"><path fill="#C0C0C0" stroke="none" d="M 471 817 C 471 802.6405952 505.0263552 791 547 791 C 588.9736448 791 623 802.6405952 623 817 C 623 831.3594048 588.9736448 843 547 843 C 505.0263552 843 471 831.3594048 471 817 Z" opacity="0.2"/></g><g transform="translate(-86,-62) scale(1,1)"><path fill="#ffffff" stroke="none" d="M 464 810 C 464 795.6405952 498.0263552 784 540 784 C 581.9736448 784 616 795.6405952 616 810 C 616 824.3594048 581.9736448 836 540 836 C 498.0263552 836 464 824.3594048 464 810 Z"/></g><g transform="translate(-86,-62) scale(1,1)"><path fill="none" stroke="#000000" d="M 464 810 C 464 795.6405952 498.0263552 784 540 784 C 581.9736448 784 616 795.6405952 616 810 C 616 824.3594048 581.9736448 836 540 836 C 498.0263552 836 464 824.3594048 464 810 Z" stroke-miterlimit="10"/></g><g transform="translate(-86,-62) scale(1,1)"><g><path fill="none" stroke="none"/><text fill="#000000" stroke="none" font-family="Arial" font-size="13px" font-style="normal" font-weight="bold" text-decoration="none" x="497.359619140625" y="810.5">update income</text><text fill="#000000" stroke="none" font-family="Arial" font-size="13px" font-style="normal" font-weight="bold" text-decoration="none" x="511.457763671875" y="823.5">statement</text></g></g><g transform="translate(-86,-62) scale(1,1)"><path fill="none" stroke="#000000" d="M 337 368 L 196 213" stroke-miterlimit="10"/></g><g transform="translate(-86,-62) scale(1,1)"><path fill="none" stroke="#000000" d="M 205.95245027706798 217.68494754319502 L 196 213 L 199.72468690304024 223.35020325763318" stroke-miterlimit="10"/></g><g transform="translate(-86,-62) scale(1,1)"><path fill="none" stroke="#000000" d="M 380 368 L 351 125" stroke-miterlimit="10"/></g><g transform="translate(-86,-62) scale(1,1)"><path fill="none" stroke="#000000" d="M 356.3841412507512 134.592237642592 L 351 125 L 348.0244265054427 135.5898990731021" stroke-miterlimit="10"/></g><g transform="translate(-86,-62) scale(1,1)"><path fill="none" stroke="#000000" d="M 411 368 L 503 173" stroke-miterlimit="10"/></g><g transform="translate(-86,-62) scale(1,1)"><path fill="none" stroke="#000000" d="M 502.4707643673283 183.98726124405488 L 503 173 L 494.8566069629529 180.39494082763164" stroke-miterlimit="10"/></g><g transform="translate(-86,-62) scale(1,1)"><path fill="none" stroke="#000000" d="M 446 387 L 686 245" stroke-miterlimit="10"/></g><g transform="translate(-86,-62) scale(1,1)"><path fill="none" stroke="#000000" d="M 679.3971260961304 253.79784383866848 L 686 245 L 675.1100480491114 246.55207812539686" stroke-miterlimit="10"/></g><g transform="translate(-86,-62) scale(1,1)"><path fill="none" stroke="#000000" d="M 446 406 L 783 319" stroke-miterlimit="10"/></g><g transform="translate(-86,-62) scale(1,1)"><path fill="none" stroke="#000000" d="M 774.212172063427 325.6161983160412 L 783 319 L 772.1077085792009 317.4644259690964" stroke-miterlimit="10"/></g><g transform="translate(-86,-62) scale(1,1)"><path fill="none" stroke="#000000" d="M 446 417 L 895 376" stroke-miterlimit="10"/></g><g transform="translate(-86,-62) scale(1,1)"><path fill="none" stroke="#000000" d="M 885.262226904313 381.1162266502682 L 895 376 L 884.4966360518919 372.73207316887573" stroke-miterlimit="10"/></g><g transform="translate(-86,-62) scale(1,1)"><path fill="none" stroke="#000000" d="M 446 426 L 967 461" stroke-miterlimit="10"/></g><g transform="translate(-86,-62) scale(1,1)"><path fill="none" stroke="#000000" d="M 956.5780264978642 464.5188731606553 L 967 461 L 957.1423327892586 456.118770937328" stroke-miterlimit="10"/></g><g transform="translate(-86,-62) scale(1,1)"><path fill="none" stroke="#000000" d="M 446 439 L 911 567" stroke-miterlimit="10"/></g><g transform="translate(-86,-62) scale(1,1)"><path fill="none" stroke="#000000" d="M 900.0845726156118 568.3614128749755 L 911 567 L 902.31896300106 560.2442915528396" stroke-miterlimit="10"/></g><g transform="translate(-86,-62) scale(1,1)"><path fill="none" stroke="#000000" d="M 446 448 L 886 639" stroke-miterlimit="10"/></g><g transform="translate(-86,-62) scale(1,1)"><path fill="none" stroke="#000000" d="M 875.0015608659903 638.8146985820749 L 886 639 L 878.3539569950526 631.091901216696" stroke-miterlimit="10"/></g><g transform="translate(-86,-62) scale(1,1)"><path fill="none" stroke="#000000" d="M 446 473 L 744 727" stroke-miterlimit="10"/></g><g transform="translate(-86,-62) scale(1,1)"><path fill="none" stroke="#000000" d="M 733.5349770762505 723.6112988911093 L 744 727 L 738.996284858855 717.203937791833" stroke-miterlimit="10"/></g><g transform="translate(-86,-62) scale(1,1)"><path fill="none" stroke="#000000" d="M 408 477 L 529 783" stroke-miterlimit="10"/></g><g transform="translate(-86,-62) scale(1,1)"><path fill="none" stroke="#000000" d="M 521.3483966651617 775.0972810750799 L 529 783 L 529.1775655366085 772.0014332533639" stroke-miterlimit="10"/></g><g transform="translate(-86,-62) scale(1,1)"><path fill="#C0C0C0" stroke="none" d="M 1044 259.5 C 1044 244.31216799999999 1068.4004783999999 232 1098.5 232 C 1128.5995216000001 232 1153 244.31216799999999 1153 259.5 C 1153 274.687832 1128.5995216000001 287 1098.5 287 C 1068.4004783999999 287 1044 274.687832 1044 259.5 Z" opacity="0.2"/></g><g transform="translate(-86,-62) scale(1,1)"><path fill="#ffffff" stroke="none" d="M 1037 252.5 C 1037 237.31216799999999 1061.4004783999999 225 1091.5 225 C 1121.5995216000001 225 1146 237.31216799999999 1146 252.5 C 1146 267.687832 1121.5995216000001 280 1091.5 280 C 1061.4004783999999 280 1037 267.687832 1037 252.5 Z"/></g><g transform="translate(-86,-62) scale(1,1)"><path fill="none" stroke="#000000" d="M 1037 252.5 C 1037 237.31216799999999 1061.4004783999999 225 1091.5 225 C 1121.5995216000001 225 1146 237.31216799999999 1146 252.5 C 1146 267.687832 1121.5995216000001 280 1091.5 280 C 1061.4004783999999 280 1037 267.687832 1037 252.5 Z" stroke-miterlimit="10"/></g><g transform="translate(-86,-62) scale(1,1)"><g><path fill="none" stroke="none"/><text fill="#000000" stroke="none" font-family="Arial" font-size="13px" font-style="normal" font-weight="bold" text-decoration="none" x="1060.42822265625" y="252">check total</text></g></g><g transform="translate(-86,-62) scale(1,1)"><g><path fill="none" stroke="none"/><text fill="#000000" stroke="none" font-family="Arial" font-size="13px" font-style="normal" font-weight="normal" text-decoration="none" x="1059.36181640625" y="267">(from view)</text></g></g><g transform="translate(-86,-62) scale(1,1)"><path fill="none" stroke="#000000" d="M 945 282 L 1036 263" stroke-miterlimit="10" stroke-dasharray="3"/></g><g transform="translate(-86,-62) scale(1,1)"><path fill="none" stroke="#000000" d="M 1026.9122079829344 269.19774444895563 L 1036 263 L 1025.1914935108023 260.95642776663783" stroke-miterlimit="10"/></g><g transform="translate(-86,-62) scale(1,1)"><g><path fill="none" stroke="none"/><text fill="#000000" stroke="none" font-family="Arial" font-size="13px" font-style="normal" font-weight="normal" text-decoration="none" x="956.5" y="248.5">«include»</text></g></g></g></svg>